<svg width="217" height="46" viewBox="0 0 217 46" fill="none" xmlns="http://www.w3.org/2000/svg">
<path fill-rule="evenodd" clip-rule="evenodd" d="M207.817 0.0658677H173.991C173.991 0.0658677 172.904 -0.0752681 172.561 1.20797V30.1236C172.631 35.6177 180.82 35.5745 186.088 36.681C186.088 36.681 188.941 37.312 189.925 38.4787C189.925 38.4787 191.047 39.6914 192.419 38.3869C192.419 38.3869 194.551 37.1057 195.641 36.8742C200.771 35.7088 208.55 36.1212 209.266 29.8023L209.315 1.20728C208.892 -0.0300501 207.817 0.0658677 207.817 0.0658677ZM208.509 29.8023C207.256 35.1024 200.771 34.6338 195.641 35.7992C193.632 36.2555 191.824 37.5846 191.824 37.5846C191.07 38.4541 190.43 37.562 190.43 37.562C189.263 36.3042 186.089 35.6053 186.089 35.6053C180.821 34.4982 173.845 34.7016 173.319 30.123V1.20797C173.4 0.579026 173.991 0.499551 173.991 0.499551H207.817C207.817 0.499551 208.559 0.555046 208.559 1.20728L208.509 29.8023Z" fill="#221E22"/>
<path fill-rule="evenodd" clip-rule="evenodd" d="M207.817 0.499464L173.991 0.498779C173.991 0.498779 173.4 0.578254 173.319 1.20788V30.1236C173.845 34.7022 180.82 34.4988 186.088 35.6059C186.088 35.6059 189.263 36.3047 190.43 37.5626C190.43 37.5626 191.071 38.4547 191.825 37.5852C191.825 37.5852 193.633 36.2554 195.641 35.7998C200.771 34.6344 207.256 35.1024 208.509 29.8029L208.559 1.20788C208.559 0.555644 207.817 0.499464 207.817 0.499464ZM207.884 29.9139C205.665 36.2109 196.116 33.0175 191.141 37.3996C187.401 33.2203 175.032 35.5929 173.936 30.3181V1.20103L207.935 1.25173L207.884 29.9139Z" fill="white"/>
<path fill-rule="evenodd" clip-rule="evenodd" d="M173.935 1.20105V30.3181C175.032 35.5936 187.401 33.2203 191.14 37.3996C196.116 33.0175 205.665 36.2109 207.883 29.9139L207.934 1.25243L173.935 1.20105ZM207.595 29.9139C205.506 35.9601 196.116 32.6537 191.14 37.0358C187.401 32.8565 175.466 35.3867 174.233 30.3181V1.46688L207.645 1.51758L207.595 29.9139Z" fill="#221E22"/>
<path fill-rule="evenodd" clip-rule="evenodd" d="M207.595 29.914C205.506 35.9602 196.116 32.6538 191.14 37.0358C187.401 32.8566 175.466 35.3867 174.233 30.3182V1.46692L207.645 1.51762L207.595 29.914Z" fill="white"/>
<path d="M177.491 17.6036H204.671V4.81165H177.491V17.6036ZM204.386 17.3206H177.765V5.10351H204.386V17.3206Z" fill="#221E22"/>
<path fill-rule="evenodd" clip-rule="evenodd" d="M204.673 17.3214C204.676 20.7237 204.685 24.1268 204.678 27.5277C204.676 28.7363 203.956 29.5283 202.934 29.9359C201.866 30.3621 200.728 30.6491 199.596 30.8718C197.941 31.1966 196.26 31.3822 194.599 31.6809C193.245 31.9242 192.13 32.4476 191.114 33.4294C191.114 28.0703 190.97 22.6805 190.97 17.3214H204.673ZM191.286 17.614V32.5743C192.185 32.0927 193.026 31.781 193.926 31.5768C195.461 31.2281 197.039 31.0773 198.581 30.756C200.03 30.4539 201.494 30.1442 202.88 29.6399C203.93 29.2576 204.454 28.3595 204.436 27.142C204.391 24.2028 204.421 21.2629 204.421 18.3237C204.419 18.0929 204.4 17.8613 204.388 17.6133H191.286V17.614Z" fill="black"/>
<path fill-rule="evenodd" clip-rule="evenodd" d="M204.601 17.4954H191.147V33.1313C194.36 30.0071 203.794 32.1193 204.601 27.7866V17.4954Z" fill="#19964F"/>
<path fill-rule="evenodd" clip-rule="evenodd" d="M191.158 33.421C189.858 32.0713 188.169 31.8576 186.439 31.5527C184.565 31.2211 182.679 30.96 180.808 30.6072C180.218 30.4962 179.637 30.2413 179.1 29.957C178.031 29.3918 177.48 28.5224 177.495 27.2474C177.534 23.9382 177.503 20.629 177.499 17.3192H191.203C191.203 22.7221 191.158 28.0181 191.158 33.421ZM190.929 17.6933H177.77V18.3476C177.77 21.3539 177.782 24.3609 177.762 27.3672C177.756 28.3168 178.13 29.078 178.928 29.5035C179.729 29.9303 180.6 30.2996 181.484 30.4798C183.328 30.858 185.217 31.0224 187.057 31.4136C188.359 31.5794 189.663 32.0419 190.928 32.5968V17.6933H190.929Z" fill="black"/>
<path fill-rule="evenodd" clip-rule="evenodd" d="M177.582 17.4694H191.036V33.1943C187.823 30.053 178.389 32.1762 177.582 27.8188V17.4694Z" fill="#0094D4"/>
<path d="M204.402 5.05481H177.496V17.5597H204.402V5.05481Z" fill="#EFDD35"/>
<path fill-rule="evenodd" clip-rule="evenodd" d="M189.364 29.5158L188.238 26.9466H189.13V26.01H186.756L186.755 25.8538C188.226 25.7689 189.395 24.6247 189.381 23.2339C189.366 21.8568 188.197 20.7476 186.746 20.6729L186.744 19.909C186.94 19.92 187.14 20.0406 187.188 20.4098H187.669C187.686 19.7576 187.351 19.4575 186.749 19.3808H183.299C183.233 19.1074 183.119 18.9745 183.007 19.0211H182.966C183.043 18.4819 182.786 18.2798 182.618 18.2798C182.464 18.2798 182.159 18.4887 182.237 19.0211H182.124C181.824 19.0807 181.842 19.7275 181.851 20.1015H181.689L181.698 20.7538H182.278V26.0107H181.025V26.9473H182.125L180.951 29.548C180.902 29.6672 180.934 29.855 181.05 29.9077L181.232 29.9927C181.332 30.0276 181.498 29.9755 181.546 29.8735L182.943 26.9473H185.226L185.438 27.9866L183.525 29.5569C183.525 29.8104 183.623 29.9358 183.825 30.0029L185.764 28.4847C186.051 28.2648 185.986 27.8996 185.936 27.7818L185.77 26.948H187.447L188.783 29.8488C188.83 29.9522 188.992 30.0043 189.089 29.9701L189.266 29.8837C189.381 29.8296 189.412 29.6371 189.364 29.5158ZM185.937 22.3248L185.101 21.4807C185.429 21.2457 185.818 21.0902 186.244 21.0354L186.246 22.0843L185.937 22.3248ZM186.105 22.9708L185.98 22.9722L186.051 22.9174L186.105 22.9708ZM183.015 26.01V20.7531H183.535L183.525 20.0447L183.354 20.0262C183.355 19.983 183.353 19.9446 183.353 19.9042H186.242L186.243 20.6914C184.861 20.8579 183.789 21.961 183.802 23.2928C183.81 24.1218 184.239 24.8536 184.896 25.3201L185.036 26.0094H183.015V26.01ZM184.224 23.3792L184.59 23.3778L184.512 23.4381L184.749 24.5973L184.679 24.6686C184.35 24.2822 184.146 23.7998 184.146 23.2695C184.146 23.2517 184.15 23.2346 184.151 23.2161L184.15 23.2709C184.148 23.3305 184.182 23.3799 184.224 23.3792ZM184.231 22.9838C184.204 22.9838 184.184 23.0071 184.17 23.038C184.228 22.5186 184.466 22.0473 184.836 21.6924L185.671 22.5337L185.101 22.9784L184.231 22.9838ZM185.21 24.1266L185.112 23.6361L185.458 23.3716L185.954 23.3682L185.21 24.1266ZM185.434 25.255L185.295 24.5542L186.248 23.5833L186.252 25.5065C185.958 25.4688 185.684 25.3797 185.434 25.255ZM185.585 26.01L185.512 25.6435C185.746 25.736 185.991 25.8086 186.253 25.8381V26.01H185.585ZM188.996 23.2435C188.996 23.2531 189 23.2606 189 23.2695C189 23.8512 188.756 24.3774 188.368 24.7796L186.964 23.3614L188.92 23.3483C188.96 23.3483 188.993 23.3017 188.996 23.2435ZM188.968 22.977C188.955 22.9653 188.943 22.953 188.927 22.953L186.853 22.9674L188.196 21.5985C188.611 21.9514 188.891 22.433 188.968 22.977ZM186.746 21.021C187.171 21.0497 187.568 21.1731 187.904 21.38L186.748 22.5577L186.746 21.021ZM186.751 23.6238L188.117 25.0022C187.739 25.2961 187.271 25.4818 186.754 25.5188L186.751 23.6238Z" fill="#221E22"/>
<path d="M201.799 20.4468C202.338 20.2214 202.475 19.4671 202.543 19.0951C201.927 19.1739 201.368 19.3102 201.183 19.9275C201.125 20.0913 201.11 20.2242 201.135 20.3221C201.064 20.3078 200.992 20.3139 200.947 20.3578L197.61 23.695C197.486 20.934 195.618 20.8154 193.899 20.377C193.826 20.3406 193.676 20.3078 193.594 20.2118C193.695 20.1283 193.745 19.9919 193.708 19.8583C193.661 19.6761 193.47 19.5671 193.289 19.6165C193.105 19.6658 192.997 19.8549 193.046 20.0371C193.066 20.1132 193.039 20.1372 193.039 20.1372L192.662 20.464L196.763 24.5418L193.052 28.2531C192.965 28.3395 193.024 28.5388 193.09 28.6026C193.154 28.6677 193.354 28.7279 193.44 28.6409L197.152 24.9282L201.183 28.9362L201.561 28.6108L201.447 28.4977L201.494 28.4512C201.573 28.5025 201.671 28.5245 201.768 28.4977C201.951 28.4491 202.06 28.2593 202.011 28.0771C201.962 27.8948 201.772 27.7859 201.59 27.8352C201.562 27.8428 201.539 27.8599 201.514 27.8743C201.449 27.79 201.374 27.7078 201.227 27.6023C200.807 26.2944 200.827 23.9903 198.035 24.0472L201.335 20.7469C201.393 20.6901 201.383 20.5866 201.353 20.501C201.461 20.5188 201.605 20.5051 201.799 20.4468ZM197.114 24.191L193.647 20.7435C195.34 21.1635 197.144 21.3279 197.266 24.039L197.114 24.191ZM201.195 28.249L200.931 27.988C201.057 28.0853 201.131 28.1668 201.195 28.249ZM200.878 27.9353L197.504 24.5781L197.69 24.3918C200.474 24.3342 200.463 26.6253 200.878 27.9353Z" fill="#191416"/>
<path fill-rule="evenodd" clip-rule="evenodd" d="M191.178 34.5665C190.95 34.5665 190.766 34.7536 190.766 34.9817C190.766 35.2105 190.95 35.3983 191.178 35.3983C191.404 35.3983 191.589 35.2105 191.589 34.9817C191.589 34.7543 191.404 34.5665 191.178 34.5665ZM191.178 35.1153C191.105 35.1153 191.047 35.055 191.047 34.9817C191.047 34.9098 191.105 34.8495 191.178 34.8495C191.25 34.8495 191.309 34.9098 191.309 34.9817C191.309 35.055 191.25 35.1153 191.178 35.1153Z" fill="#221E22"/>
<path fill-rule="evenodd" clip-rule="evenodd" d="M191.897 34.2165C191.872 33.4361 191.152 33.4443 191.152 33.4443C190.43 33.4786 190.423 34.1904 190.423 34.1904C189.771 34.1904 189.685 34.8769 189.685 34.8769C189.676 35.7176 190.371 35.7861 190.371 35.7861C190.423 36.4897 191.067 36.5322 191.067 36.5322C191.83 36.524 191.848 35.769 191.848 35.769C192.568 35.6319 192.559 35.0057 192.559 35.0057C192.584 34.2507 191.897 34.2165 191.897 34.2165ZM191.529 35.5038C191.529 35.5038 191.709 36.2739 191.057 36.2335C190.517 36.1985 190.698 35.4867 190.698 35.4867C190.698 35.4867 189.934 35.6408 189.976 34.9126C190.011 34.3282 190.732 34.5001 190.732 34.5001C190.732 34.5001 190.551 33.7198 191.152 33.7362C191.778 33.7533 191.564 34.4823 191.564 34.4823C191.564 34.4823 192.275 34.4056 192.267 34.9461C192.258 35.5641 191.529 35.5038 191.529 35.5038Z" fill="#221E22"/>
<path fill-rule="evenodd" clip-rule="evenodd" d="M202.399 31.7521C202.173 31.7521 201.987 31.9398 201.987 32.1679C201.987 32.3961 202.173 32.5845 202.399 32.5845C202.626 32.5845 202.811 32.3968 202.811 32.1679C202.811 31.9405 202.626 31.7521 202.399 31.7521ZM202.399 32.3009C202.327 32.3009 202.268 32.2413 202.268 32.1679C202.268 32.0946 202.327 32.035 202.399 32.035C202.471 32.035 202.53 32.0953 202.53 32.1679C202.53 32.2406 202.471 32.3009 202.399 32.3009Z" fill="#221E22"/>
<path fill-rule="evenodd" clip-rule="evenodd" d="M203.12 31.4027C203.094 30.6217 202.373 30.6299 202.373 30.6299C201.652 30.6655 201.644 31.3774 201.644 31.3774C200.992 31.3774 200.907 32.0632 200.907 32.0632C200.898 32.9038 201.592 32.973 201.592 32.973C201.644 33.6766 202.288 33.7191 202.288 33.7191C203.051 33.7102 203.069 32.9552 203.069 32.9552C203.79 32.8175 203.781 32.1913 203.781 32.1913C203.806 31.437 203.12 31.4027 203.12 31.4027ZM202.751 32.6887C202.751 32.6887 202.931 33.4594 202.28 33.4183C201.739 33.3848 201.919 32.6722 201.919 32.6722C201.919 32.6722 201.156 32.8257 201.199 32.0974C201.233 31.5144 201.953 31.6857 201.953 31.6857C201.953 31.6857 201.773 30.9053 202.373 30.9224C203 30.9396 202.786 31.6685 202.786 31.6685C202.786 31.6685 203.496 31.5904 203.489 32.1317C203.48 32.7497 202.751 32.6887 202.751 32.6887Z" fill="#221E22"/>
<path fill-rule="evenodd" clip-rule="evenodd" d="M180.127 31.5979C179.899 31.5979 179.716 31.7856 179.716 32.0145C179.716 32.2426 179.899 32.4296 180.127 32.4296C180.353 32.4296 180.538 32.2426 180.538 32.0145C180.538 31.7856 180.353 31.5979 180.127 31.5979ZM180.127 32.1467C180.054 32.1467 179.995 32.0878 179.995 32.0145C179.995 31.9411 180.054 31.8815 180.127 31.8815C180.199 31.8815 180.258 31.9411 180.258 32.0145C180.258 32.0871 180.199 32.1467 180.127 32.1467Z" fill="#221E22"/>
<path fill-rule="evenodd" clip-rule="evenodd" d="M180.847 31.2478C180.821 30.4668 180.1 30.4757 180.1 30.4757C179.379 30.51 179.372 31.2218 179.372 31.2218C178.719 31.2218 178.634 31.9083 178.634 31.9083C178.625 32.749 179.32 32.8175 179.32 32.8175C179.372 33.5211 180.015 33.5643 180.015 33.5643C180.779 33.5553 180.796 32.8003 180.796 32.8003C181.517 32.6633 181.509 32.0371 181.509 32.0371C181.533 31.2835 180.847 31.2478 180.847 31.2478ZM180.477 32.5352C180.477 32.5352 180.658 33.306 180.006 33.2642C179.465 33.2299 179.646 32.5181 179.646 32.5181C179.646 32.5181 178.883 32.6708 178.925 31.9432C178.959 31.3595 179.68 31.5315 179.68 31.5315C179.68 31.5315 179.499 30.7511 180.1 30.7683C180.726 30.7854 180.512 31.515 180.512 31.515C180.512 31.515 181.223 31.4376 181.215 31.9782C181.207 32.5955 180.477 32.5352 180.477 32.5352Z" fill="#221E22"/>
<path fill-rule="evenodd" clip-rule="evenodd" d="M175.924 22.6132C175.698 22.6132 175.513 22.8002 175.513 23.029C175.513 23.2572 175.698 23.4456 175.924 23.4456C176.151 23.4456 176.336 23.2572 176.336 23.029C176.336 22.8009 176.151 22.6132 175.924 22.6132ZM175.924 23.1626C175.852 23.1626 175.794 23.103 175.794 23.0297C175.794 22.9571 175.852 22.8968 175.924 22.8968C175.997 22.8968 176.056 22.9571 176.056 23.0297C176.056 23.1023 175.997 23.1626 175.924 23.1626Z" fill="#221E22"/>
<path fill-rule="evenodd" clip-rule="evenodd" d="M176.645 22.2638C176.619 21.4834 175.898 21.4923 175.898 21.4923C175.178 21.5266 175.169 22.2384 175.169 22.2384C174.518 22.2384 174.432 22.9242 174.432 22.9242C174.422 23.7656 175.118 23.8341 175.118 23.8341C175.169 24.537 175.813 24.5802 175.813 24.5802C176.576 24.5713 176.595 23.8163 176.595 23.8163C177.315 23.6799 177.306 23.053 177.306 23.053C177.331 22.298 176.645 22.2638 176.645 22.2638ZM176.276 23.5504C176.276 23.5504 176.456 24.3212 175.804 24.2794C175.264 24.2451 175.444 23.5333 175.444 23.5333C175.444 23.5333 174.681 23.6868 174.724 22.9592C174.758 22.3754 175.479 22.5467 175.479 22.5467C175.479 22.5467 175.298 21.7671 175.899 21.7835C176.525 21.8006 176.311 22.5303 176.311 22.5303C176.311 22.5303 177.022 22.4522 177.014 22.9934C177.005 23.6107 176.276 23.5504 176.276 23.5504Z" fill="#221E22"/>
<path fill-rule="evenodd" clip-rule="evenodd" d="M175.924 12.2726C175.698 12.2726 175.513 12.4603 175.513 12.6885C175.513 12.9166 175.698 13.1043 175.924 13.1043C176.151 13.1043 176.336 12.9166 176.336 12.6885C176.336 12.4603 176.151 12.2726 175.924 12.2726ZM175.924 12.8214C175.852 12.8214 175.794 12.7618 175.794 12.6885C175.794 12.6158 175.852 12.5555 175.924 12.5555C175.997 12.5555 176.056 12.6158 176.056 12.6885C176.056 12.7618 175.997 12.8214 175.924 12.8214Z" fill="#221E22"/>
<path fill-rule="evenodd" clip-rule="evenodd" d="M176.645 11.9226C176.619 11.1422 175.898 11.1511 175.898 11.1511C175.178 11.1854 175.169 11.8972 175.169 11.8972C174.518 11.8972 174.432 12.5837 174.432 12.5837C174.422 13.4244 175.118 13.4929 175.118 13.4929C175.169 14.1965 175.813 14.2397 175.813 14.2397C176.576 14.2308 176.595 13.4758 176.595 13.4758C177.315 13.3387 177.306 12.7125 177.306 12.7125C177.331 11.9575 176.645 11.9226 176.645 11.9226ZM176.276 13.2099C176.276 13.2099 176.456 13.9807 175.804 13.9389C175.264 13.9046 175.444 13.1921 175.444 13.1921C175.444 13.1921 174.681 13.3456 174.724 12.6173C174.758 12.0343 175.479 12.2055 175.479 12.2055C175.479 12.2055 175.298 11.4252 175.899 11.4416C176.525 11.4587 176.311 12.1884 176.311 12.1884C176.311 12.1884 177.022 12.111 177.014 12.6515C177.005 13.2709 176.276 13.2099 176.276 13.2099Z" fill="#221E22"/>
<path fill-rule="evenodd" clip-rule="evenodd" d="M175.924 2.93921C175.698 2.93921 175.513 3.12693 175.513 3.35508C175.513 3.58391 175.698 3.77095 175.924 3.77095C176.151 3.77095 176.336 3.58391 176.336 3.35508C176.336 3.12625 176.151 2.93921 175.924 2.93921ZM175.924 3.48799C175.852 3.48799 175.794 3.4277 175.794 3.35508C175.794 3.28246 175.852 3.22216 175.924 3.22216C175.997 3.22216 176.056 3.28246 176.056 3.35508C176.056 3.4277 175.997 3.48799 175.924 3.48799Z" fill="#221E22"/>
<path fill-rule="evenodd" clip-rule="evenodd" d="M176.645 2.58964C176.619 1.8086 175.898 1.81751 175.898 1.81751C175.178 1.85177 175.169 2.56361 175.169 2.56361C174.518 2.56361 174.432 3.2501 174.432 3.2501C174.422 4.09075 175.118 4.15926 175.118 4.15926C175.169 4.86289 175.813 4.90536 175.813 4.90536C176.576 4.89714 176.595 4.14214 176.595 4.14214C177.315 4.00443 177.306 3.37822 177.306 3.37822C177.331 2.6239 176.645 2.58964 176.645 2.58964ZM176.276 3.87631C176.276 3.87631 176.456 4.64707 175.804 4.60528C175.264 4.57102 175.444 3.85918 175.444 3.85918C175.444 3.85918 174.681 4.01196 174.724 3.28436C174.758 2.70132 175.479 2.8726 175.479 2.8726C175.479 2.8726 175.298 2.09224 175.899 2.10937C176.525 2.12582 176.311 2.85479 176.311 2.85479C176.311 2.85479 177.022 2.77737 177.014 3.31862C177.005 3.9366 176.276 3.87631 176.276 3.87631Z" fill="#221E22"/>
<path fill-rule="evenodd" clip-rule="evenodd" d="M191.024 2.68713C190.797 2.68713 190.613 2.87486 190.613 3.103C190.613 3.33184 190.797 3.51887 191.024 3.51887C191.25 3.51887 191.435 3.33184 191.435 3.103C191.435 2.87554 191.251 2.68713 191.024 2.68713ZM191.024 3.2366C190.952 3.2366 190.893 3.17631 190.893 3.10369C190.893 3.03107 190.952 2.97077 191.024 2.97077C191.096 2.97077 191.155 3.03107 191.155 3.10369C191.156 3.17631 191.097 3.2366 191.024 3.2366Z" fill="#221E22"/>
<path fill-rule="evenodd" clip-rule="evenodd" d="M191.744 2.3383C191.718 1.55726 190.998 1.56617 190.998 1.56617C190.277 1.60042 190.269 2.31227 190.269 2.31227C189.617 2.31227 189.531 2.99808 189.531 2.99808C189.523 3.83941 190.217 3.90792 190.217 3.90792C190.269 4.61154 190.913 4.65471 190.913 4.65471C191.677 4.6458 191.694 3.89079 191.694 3.89079C192.414 3.75377 192.406 3.12757 192.406 3.12757C192.431 2.37256 191.744 2.3383 191.744 2.3383ZM191.375 3.62497C191.375 3.62497 191.555 4.39573 190.904 4.35394C190.364 4.31968 190.544 3.60784 190.544 3.60784C190.544 3.60784 189.78 3.7613 189.823 3.03302C189.858 2.44998 190.578 2.62126 190.578 2.62126C190.578 2.62126 190.397 1.8409 190.999 1.85803C191.625 1.87516 191.411 2.60413 191.411 2.60413C191.411 2.60413 192.122 2.52603 192.114 3.06727C192.105 3.68457 191.375 3.62497 191.375 3.62497Z" fill="#221E22"/>
<path fill-rule="evenodd" clip-rule="evenodd" d="M205.712 3.00769C205.485 3.00769 205.301 3.19473 205.301 3.42356C205.301 3.65171 205.485 3.83943 205.712 3.83943C205.938 3.83943 206.124 3.65102 206.124 3.42356C206.124 3.19541 205.938 3.00769 205.712 3.00769ZM205.712 3.55647C205.639 3.55647 205.581 3.49687 205.581 3.42356C205.581 3.35025 205.639 3.29065 205.712 3.29065C205.784 3.29065 205.843 3.35094 205.843 3.42356C205.843 3.49618 205.784 3.55647 205.712 3.55647Z" fill="#221E22"/>
<path fill-rule="evenodd" clip-rule="evenodd" d="M206.433 2.65769C206.407 1.87733 205.686 1.88623 205.686 1.88623C204.965 1.92049 204.957 2.63234 204.957 2.63234C204.305 2.63234 204.219 3.31883 204.219 3.31883C204.21 4.15948 204.906 4.22799 204.906 4.22799C204.957 4.93161 205.6 4.97478 205.6 4.97478C206.364 4.96587 206.381 4.21086 206.381 4.21086C207.102 4.07384 207.094 3.44763 207.094 3.44763C207.119 2.69263 206.433 2.65769 206.433 2.65769ZM206.063 3.94503C206.063 3.94503 206.243 4.7158 205.592 4.67401C205.052 4.63975 205.232 3.92791 205.232 3.92791C205.232 3.92791 204.469 4.08137 204.511 3.3524C204.545 2.76936 205.266 2.94064 205.266 2.94064C205.266 2.94064 205.085 2.16028 205.687 2.17673C206.313 2.19386 206.099 2.92283 206.099 2.92283C206.099 2.92283 206.81 2.84541 206.801 3.38597C206.792 4.00532 206.063 3.94503 206.063 3.94503Z" fill="#221E22"/>
<path fill-rule="evenodd" clip-rule="evenodd" d="M206.238 22.5002C206.011 22.5002 205.826 22.6873 205.826 22.9161C205.826 23.1449 206.011 23.332 206.238 23.332C206.464 23.332 206.65 23.1449 206.65 22.9161C206.649 22.688 206.464 22.5002 206.238 22.5002ZM206.238 23.0497C206.166 23.0497 206.107 22.9894 206.107 22.9168C206.107 22.8435 206.166 22.7839 206.238 22.7839C206.31 22.7839 206.37 22.8435 206.37 22.9168C206.37 22.9894 206.31 23.0497 206.238 23.0497Z" fill="#221E22"/>
<path fill-rule="evenodd" clip-rule="evenodd" d="M206.958 22.1507C206.932 21.3696 206.211 21.3785 206.211 21.3785C205.49 21.4128 205.483 22.1253 205.483 22.1253C204.83 22.1253 204.745 22.8111 204.745 22.8111C204.736 23.6518 205.431 23.721 205.431 23.721C205.483 24.4239 206.127 24.4671 206.127 24.4671C206.889 24.4582 206.908 23.7032 206.908 23.7032C207.628 23.5661 207.619 22.9399 207.619 22.9399C207.644 22.1849 206.958 22.1507 206.958 22.1507ZM206.589 23.4373C206.589 23.4373 206.768 24.2081 206.118 24.1663C205.577 24.1321 205.757 23.4202 205.757 23.4202C205.757 23.4202 204.994 23.5737 205.036 22.8454C205.071 22.2617 205.792 22.433 205.792 22.433C205.792 22.433 205.611 21.6533 206.212 21.6697C206.838 21.6869 206.625 22.4165 206.625 22.4165C206.625 22.4165 207.335 22.3384 207.328 22.8797C207.319 23.497 206.589 23.4373 206.589 23.4373Z" fill="#221E22"/>
<path fill-rule="evenodd" clip-rule="evenodd" d="M206.238 13.0626C206.011 13.0626 205.826 13.2503 205.826 13.4785C205.826 13.7066 206.011 13.8944 206.238 13.8944C206.464 13.8944 206.65 13.7073 206.65 13.4785C206.65 13.2497 206.464 13.0626 206.238 13.0626ZM206.238 13.6121C206.166 13.6121 206.107 13.5518 206.107 13.4792C206.107 13.4066 206.166 13.3463 206.238 13.3463C206.31 13.3463 206.37 13.4066 206.37 13.4792C206.37 13.5518 206.31 13.6121 206.238 13.6121Z" fill="#221E22"/>
<path fill-rule="evenodd" clip-rule="evenodd" d="M206.958 12.7139C206.932 11.9329 206.211 11.9418 206.211 11.9418C205.49 11.976 205.483 12.6886 205.483 12.6886C204.83 12.6886 204.745 13.3744 204.745 13.3744C204.736 14.2157 205.431 14.2842 205.431 14.2842C205.483 14.9872 206.127 15.0303 206.127 15.0303C206.889 15.0214 206.908 14.2664 206.908 14.2664C207.628 14.1294 207.619 13.5032 207.619 13.5032C207.644 12.7475 206.958 12.7139 206.958 12.7139ZM206.589 14.0006C206.589 14.0006 206.768 14.7713 206.118 14.7295C205.577 14.6953 205.757 13.9834 205.757 13.9834C205.757 13.9834 204.994 14.1369 205.036 13.4086C205.071 12.8256 205.792 12.9962 205.792 12.9962C205.792 12.9962 205.611 12.2158 206.212 12.233C206.838 12.2501 206.625 12.9791 206.625 12.9791C206.625 12.9791 207.335 12.9016 207.328 13.4422C207.319 14.0602 206.589 14.0006 206.589 14.0006Z" fill="#221E22"/>
<path d="M193.636 5.73242L179.703 12.9392L182.234 17.0918L196.57 9.49923L193.636 5.73242ZM179.952 12.9995L193.602 5.94687L196.313 9.44717L182.303 16.8767L179.952 12.9995Z" fill="#2C2428"/>
<path d="M179.952 12.9996L193.602 5.9469L196.313 9.4472L182.303 16.8767L179.952 12.9996Z" fill="white"/>
<path d="M193.916 5.7749L196.345 8.85454C194.978 9.96101 192.068 10.296 190.058 12.087L187.509 8.98677L187.442 9.05322C188.57 7.04855 192.163 7.5576 193.916 5.7749Z" fill="white"/>
<path d="M193.822 5.01099C192.038 6.82451 188.258 6.32848 187.199 8.4599C184.46 7.9166 182.394 11.2908 179.63 11.6553L182.051 15.8209C184.918 15.1173 187.664 11.68 189.927 11.8314C191.94 9.94388 195.079 9.47663 196.473 8.34891L193.822 5.01099ZM193.805 5.24324L196.233 8.32288C194.866 9.42935 191.956 9.76438 189.946 11.5553L187.37 8.42428L187.331 8.52225C188.459 6.51621 192.051 7.02525 193.805 5.24324ZM179.882 11.7807C182.622 11.3093 184.522 8.09405 187.253 8.62159L189.753 11.6622C187.525 11.5991 184.965 14.9453 182.129 15.6414L179.882 11.7807Z" fill="#2C2428"/>
<path d="M193.857 5.17407C192.072 6.9876 188.293 6.49157 187.233 8.62299C184.494 8.08037 182.429 11.4539 179.664 11.8184L182.086 15.9847C184.951 15.2817 187.699 11.8438 189.962 11.9952C191.974 10.1083 195.113 9.6404 196.508 8.512L193.857 5.17407ZM193.84 5.40564L196.268 8.48596C194.901 9.59175 191.991 9.92678 189.98 11.7184L187.431 8.61819L187.365 8.68533C188.493 6.67929 192.085 7.18834 193.84 5.40564ZM179.916 11.9438C182.656 11.4731 184.557 8.25713 187.288 8.78536L189.787 11.8259C187.559 11.7622 184.999 15.1091 182.164 15.8051L179.916 11.9438Z" fill="#2C2428"/>
<path d="M193.952 5.35425C192.166 7.16777 188.388 6.67174 187.328 8.80316C184.589 8.26055 182.524 11.6341 179.759 11.9986L182.123 16.1415C184.988 15.4386 187.735 12.0013 189.998 12.1527C192.011 10.2652 195.15 9.79728 196.545 8.66957L193.952 5.35425ZM193.934 5.58651L196.362 8.66614C194.995 9.77261 192.086 10.1076 190.075 11.8986L187.526 8.79905L187.46 8.86551C188.588 6.85947 192.179 7.36851 193.934 5.58651ZM180.01 12.1233C182.749 11.6526 184.651 8.43731 187.381 8.96485L189.882 12.0054C187.654 11.9424 185.093 15.2879 182.258 15.984L180.01 12.1233Z" fill="#2C2428"/>
<path d="M193.934 5.54333C192.15 7.35617 188.37 6.86083 187.312 8.99225C184.572 8.44895 182.537 11.8396 179.772 12.2041L182.191 16.3053C185.057 15.6016 187.719 12.1904 189.981 12.3411C191.994 10.4543 195.133 9.98637 196.528 8.85865L193.934 5.54333ZM193.916 5.77491L196.345 8.85454C194.978 9.96102 192.068 10.296 190.057 12.087L187.509 8.98745L187.442 9.05391C188.57 7.04855 192.163 7.55692 193.916 5.77491ZM179.993 12.3124C182.733 11.8417 184.633 8.62571 187.364 9.15326L189.864 12.1938C187.636 12.1308 185.076 15.4763 182.24 16.1724L179.993 12.3124Z" fill="#2C2428"/>
<path d="M193.805 5.24316L196.233 8.3228C194.866 9.42927 191.956 9.7643 189.946 11.5552L187.397 8.45571L187.331 8.52217C188.459 6.51613 192.051 7.02517 193.805 5.24316Z" fill="white"/>
<path d="M179.882 11.7806C182.622 11.3093 184.522 8.09396 187.253 8.62151L189.753 11.6621C187.525 11.5991 184.965 14.9452 182.129 15.6413L179.882 11.7806Z" fill="white"/>
<path fill-rule="evenodd" clip-rule="evenodd" d="M185.513 13.6491L185.236 12.8544L185.605 12.64L185.644 12.7523L185.379 12.9065L185.46 13.1326L185.723 12.9784L185.762 13.0867L185.498 13.2415L185.579 13.4744L185.842 13.3223L185.883 13.4361L185.513 13.6491ZM184.833 14.0451L184.555 13.2511L184.742 13.1415C184.847 13.0805 184.944 13.0599 185.033 13.0812C185.123 13.1017 185.195 13.162 185.253 13.26C185.323 13.3813 185.344 13.5018 185.312 13.6183C185.28 13.7348 185.203 13.83 185.079 13.9019L184.833 14.0451ZM184.799 13.2367L184.694 13.2977L184.899 13.8793L185.025 13.8067C185.116 13.754 185.172 13.6841 185.196 13.5971C185.219 13.5094 185.205 13.4217 185.153 13.3319C185.111 13.26 185.059 13.2148 184.998 13.1983C184.938 13.1812 184.87 13.1949 184.799 13.2367ZM185.891 11.5115L186.001 11.4478C186.004 11.4506 186.005 11.454 186.007 11.4581C186.008 11.4622 186.011 11.465 186.011 11.467C186.036 11.5074 186.062 11.5335 186.093 11.5438C186.123 11.554 186.157 11.5485 186.193 11.5273C186.226 11.5074 186.248 11.48 186.258 11.4458C186.268 11.4108 186.263 11.3759 186.243 11.343C186.23 11.319 186.213 11.3026 186.193 11.293C186.173 11.2834 186.137 11.2779 186.087 11.2772H186.05C185.989 11.2786 185.941 11.2745 185.907 11.2642C185.882 11.2574 185.86 11.2457 185.839 11.23C185.821 11.2142 185.803 11.1943 185.789 11.1697C185.755 11.1121 185.747 11.0525 185.766 10.9909C185.784 10.9292 185.826 10.8806 185.887 10.8442C185.947 10.8093 186.004 10.7983 186.057 10.8114C186.111 10.8244 186.154 10.8593 186.187 10.9162C186.191 10.9223 186.193 10.9265 186.195 10.9306C186.196 10.9326 186.198 10.936 186.199 10.9395L186.093 11.0018C186.092 10.9998 186.09 10.9977 186.089 10.9936C186.087 10.9909 186.086 10.9881 186.085 10.9867C186.068 10.9566 186.045 10.9381 186.019 10.9306C185.991 10.9223 185.965 10.9265 185.937 10.9429C185.909 10.9587 185.892 10.9819 185.884 11.0121C185.876 11.0429 185.878 11.071 185.895 11.0977C185.917 11.1354 185.982 11.1539 186.091 11.1539H186.142C186.187 11.1553 186.229 11.1662 186.265 11.1861C186.302 11.2074 186.332 11.2354 186.352 11.2724C186.389 11.3355 186.398 11.4012 186.378 11.4698C186.36 11.5383 186.317 11.5917 186.25 11.6294C186.18 11.6705 186.116 11.6821 186.056 11.665C185.996 11.6479 185.945 11.6027 185.902 11.53L185.891 11.5115ZM185.076 11.8754C185.039 11.8123 185.015 11.7486 185.005 11.6842C184.994 11.6198 184.998 11.5575 185.016 11.4972C185.031 11.4403 185.058 11.3869 185.096 11.341C185.132 11.2951 185.178 11.2553 185.235 11.2224C185.335 11.1656 185.431 11.1491 185.525 11.1738C185.619 11.1991 185.695 11.2608 185.752 11.3601C185.78 11.4088 185.8 11.4574 185.813 11.5068C185.826 11.5575 185.83 11.6068 185.826 11.6547C185.821 11.7274 185.798 11.7952 185.758 11.8569C185.717 11.9185 185.663 11.9692 185.595 12.0083C185.495 12.0672 185.397 12.0843 185.304 12.0603C185.21 12.0377 185.134 11.9754 185.076 11.8754ZM185.179 11.8103C185.222 11.8815 185.275 11.9267 185.341 11.9459C185.408 11.9644 185.475 11.9535 185.544 11.9137C185.628 11.8644 185.681 11.7945 185.701 11.7041C185.72 11.6129 185.702 11.5198 185.647 11.4259C185.606 11.3533 185.551 11.3074 185.486 11.2882C185.42 11.269 185.353 11.28 185.283 11.3204C185.199 11.3697 185.147 11.4396 185.127 11.5307C185.108 11.6225 185.125 11.7157 185.179 11.8103ZM184.593 11.3396C184.604 11.3786 184.606 11.4108 184.599 11.4369C184.592 11.4629 184.576 11.4828 184.55 11.4978C184.543 11.5006 184.538 11.5033 184.534 11.5054C184.529 11.5068 184.524 11.5081 184.52 11.5095L184.468 11.5205C184.461 11.5218 184.457 11.5232 184.453 11.5253C184.448 11.5266 184.444 11.53 184.44 11.5321C184.428 11.5383 184.421 11.5465 184.418 11.5575C184.414 11.5684 184.415 11.5814 184.419 11.5958L184.37 11.626C184.357 11.5869 184.355 11.5533 184.361 11.5266C184.368 11.4999 184.383 11.48 184.409 11.4656C184.414 11.4629 184.42 11.4602 184.424 11.4574C184.43 11.4554 184.437 11.4533 184.444 11.4513L184.494 11.4389C184.5 11.4382 184.505 11.4369 184.508 11.4355C184.513 11.4341 184.517 11.4321 184.521 11.43C184.532 11.4239 184.539 11.4156 184.543 11.406C184.546 11.3964 184.546 11.3841 184.543 11.369L184.593 11.3396ZM184.531 12.6091L184.255 11.813L184.399 11.7287L184.934 12.1843L184.712 11.5465L184.816 11.4855L185.094 12.2809L184.957 12.3611L184.407 11.8911L184.635 12.5481L184.531 12.6091ZM184.022 12.9051L183.745 12.109L184.114 11.8945L184.153 12.0076L183.889 12.161L183.968 12.3871L184.232 12.2337L184.271 12.3419L184.007 12.4954L184.088 12.7297L184.35 12.5762L184.392 12.69L184.022 12.9051ZM183.158 12.4509L183.262 12.3899L183.431 12.8756C183.439 12.8948 183.445 12.9133 183.452 12.9291C183.459 12.9462 183.467 12.9606 183.473 12.9722C183.491 13.0031 183.515 13.0222 183.544 13.0291C183.574 13.0353 183.606 13.0284 183.641 13.0072C183.686 12.9818 183.712 12.9483 183.718 12.9078C183.725 12.8667 183.712 12.8016 183.68 12.7112L183.517 12.2412L183.622 12.1802L183.789 12.6605C183.79 12.6646 183.792 12.6728 183.796 12.6831C183.829 12.7742 183.843 12.8448 183.842 12.8948C183.842 12.9387 183.828 12.9791 183.803 13.0168C183.778 13.0531 183.741 13.086 183.692 13.1147C183.629 13.1524 183.568 13.1648 183.512 13.1524C183.456 13.1415 183.412 13.1072 183.379 13.051C183.369 13.0353 183.36 13.0168 183.351 12.9962C183.341 12.9763 183.332 12.9537 183.324 12.9304L183.158 12.4509ZM182.823 13.297L182.934 13.2333C182.936 13.2353 182.937 13.2394 182.939 13.2435C182.941 13.247 182.943 13.2504 182.944 13.2525C182.967 13.2936 182.995 13.3189 183.025 13.3285C183.055 13.3395 183.088 13.334 183.125 13.3127C183.158 13.2929 183.18 13.2655 183.19 13.2305C183.2 13.1963 183.195 13.1613 183.175 13.1284C183.162 13.1051 183.145 13.088 183.125 13.0784C183.105 13.0682 183.069 13.0634 183.019 13.0627H182.983C182.923 13.064 182.875 13.0592 182.839 13.0497C182.814 13.0428 182.792 13.0318 182.772 13.0154C182.753 13.0003 182.735 12.9798 182.722 12.9551C182.688 12.8976 182.679 12.8373 182.699 12.7763C182.716 12.7139 182.757 12.6653 182.82 12.6297C182.879 12.5947 182.936 12.5838 182.99 12.5961C183.043 12.6091 183.086 12.6447 183.119 12.7016C183.122 12.7064 183.125 12.7112 183.127 12.7153C183.128 12.7174 183.13 12.7208 183.132 12.7242L183.025 12.7866C183.024 12.7845 183.022 12.7825 183.021 12.779C183.02 12.7763 183.019 12.7735 183.018 12.7715C183 12.7413 182.977 12.7228 182.951 12.7153C182.925 12.7071 182.897 12.7112 182.869 12.7276C182.841 12.7434 182.823 12.7674 182.816 12.7975C182.808 12.8277 182.812 12.8564 182.826 12.8832C182.849 12.9202 182.914 12.9393 183.022 12.9393H183.075C183.119 12.9407 183.161 12.951 183.199 12.9716C183.235 12.9928 183.265 13.0216 183.285 13.0586C183.322 13.1209 183.33 13.1867 183.31 13.2545C183.293 13.3237 183.249 13.3771 183.184 13.4148C183.113 13.4552 183.049 13.4676 182.988 13.4505C182.927 13.4333 182.877 13.3881 182.834 13.3148L182.823 13.297ZM184.221 10.8703L184.33 10.8072C184.332 10.8093 184.333 10.8134 184.336 10.8168C184.337 10.8209 184.339 10.8244 184.341 10.8264C184.364 10.8675 184.391 10.8929 184.422 10.9032C184.453 10.9134 184.486 10.9073 184.522 10.8867C184.557 10.8668 184.578 10.8394 184.587 10.8038C184.597 10.7702 184.592 10.7353 184.572 10.7024C184.559 10.6791 184.542 10.662 184.522 10.6524C184.502 10.6421 184.466 10.6373 184.416 10.6373C184.408 10.6366 184.396 10.6373 184.379 10.6373C184.318 10.6373 184.271 10.6346 184.237 10.6243C184.211 10.6175 184.189 10.6065 184.168 10.5901C184.15 10.5743 184.133 10.5544 184.118 10.5298C184.084 10.4722 184.076 10.4119 184.095 10.3509C184.113 10.2886 184.154 10.24 184.216 10.2043C184.276 10.1687 184.333 10.1584 184.387 10.1708C184.44 10.1838 184.483 10.2194 184.516 10.2749C184.52 10.2811 184.522 10.2859 184.524 10.2893C184.526 10.292 184.527 10.2955 184.529 10.2982L184.422 10.3599C184.421 10.3585 184.42 10.3564 184.418 10.353C184.417 10.3496 184.415 10.3468 184.415 10.3455C184.397 10.316 184.374 10.2968 184.348 10.2893C184.322 10.2811 184.294 10.2859 184.265 10.3016C184.238 10.3174 184.22 10.3407 184.213 10.3715C184.205 10.4016 184.208 10.4304 184.224 10.4565C184.245 10.4935 184.311 10.5133 184.42 10.5126C184.442 10.5133 184.46 10.5133 184.472 10.5133C184.516 10.514 184.558 10.525 184.594 10.5455C184.632 10.5668 184.661 10.5955 184.682 10.6318C184.72 10.6949 184.727 10.76 184.708 10.8285C184.689 10.8977 184.646 10.9511 184.58 10.9881C184.509 11.0292 184.445 11.0422 184.385 11.0237C184.325 11.0066 184.273 10.9614 184.231 10.8888L184.221 10.8703ZM183.404 11.2354C183.367 11.1724 183.344 11.1087 183.333 11.0443C183.323 10.9799 183.326 10.9175 183.344 10.8573C183.36 10.8004 183.387 10.7476 183.424 10.7017C183.46 10.6558 183.507 10.6161 183.564 10.5825C183.664 10.525 183.759 10.5085 183.854 10.5339C183.948 10.5585 184.024 10.6209 184.081 10.7202C184.109 10.7682 184.129 10.8182 184.142 10.8675C184.154 10.9182 184.159 10.9669 184.155 11.0155C184.149 11.0881 184.127 11.156 184.086 11.2176C184.046 11.2793 183.992 11.33 183.925 11.369C183.824 11.4273 183.726 11.4451 183.632 11.4204C183.539 11.3964 183.462 11.3348 183.404 11.2354ZM183.509 11.1697C183.55 11.2409 183.605 11.2868 183.67 11.3053C183.737 11.3238 183.804 11.3135 183.874 11.2738C183.959 11.2245 184.01 11.1546 184.03 11.0635C184.049 10.9724 184.032 10.8792 183.978 10.786C183.935 10.7141 183.88 10.6675 183.815 10.649C183.749 10.6298 183.682 10.6408 183.613 10.6812C183.528 10.7298 183.476 10.8004 183.456 10.8915C183.436 10.9826 183.454 11.0751 183.509 11.1697ZM183.208 11.7657L182.931 10.9703L183.036 10.9086L183.274 11.5903L183.515 11.4506L183.554 11.565L183.208 11.7657Z" fill="#221E22"/>
<path fill-rule="evenodd" clip-rule="evenodd" d="M193.544 8.69703L193.35 7.97764L193.517 7.89611C193.594 7.85843 193.662 7.84679 193.72 7.86049C193.779 7.87419 193.823 7.91119 193.854 7.97353C193.883 8.03314 193.887 8.09275 193.868 8.1503C193.848 8.20785 193.806 8.25649 193.742 8.29486L193.996 8.47573L193.89 8.5278L193.556 8.29075C193.56 8.28938 193.567 8.28595 193.573 8.28253C193.667 8.23594 193.722 8.19963 193.741 8.17291C193.755 8.1503 193.763 8.127 193.766 8.10097C193.768 8.0763 193.762 8.05164 193.752 8.02903C193.735 7.99409 193.709 7.97285 193.677 7.96531C193.644 7.95778 193.606 7.96463 193.563 7.98518C193.552 7.99066 193.537 7.9982 193.522 8.00574C193.507 8.01464 193.49 8.02355 193.474 8.03314L193.638 8.65044L193.544 8.69703ZM193.232 8.50176L193.048 8.24964L193.036 8.597L193.232 8.50176ZM192.919 9.00122L192.959 8.16811L193.069 8.11467L193.522 8.70662L193.422 8.75595L193.293 8.58535L193.033 8.71141L193.022 8.95052L192.919 9.00122ZM192.732 8.795L192.432 8.94093L192.408 8.84981L192.81 8.65455C192.848 8.76211 192.849 8.86351 192.813 8.95669C192.776 9.04986 192.708 9.12112 192.61 9.16976C192.514 9.21498 192.426 9.22457 192.344 9.19648C192.263 9.16839 192.199 9.10741 192.153 9.0115C192.127 8.96011 192.114 8.90804 192.108 8.85323C192.104 8.79842 192.109 8.74635 192.125 8.69497C192.142 8.64221 192.168 8.59631 192.203 8.55589C192.238 8.51615 192.282 8.48327 192.335 8.45792C192.415 8.41818 192.491 8.40516 192.56 8.41886C192.63 8.43325 192.692 8.4723 192.747 8.53876L192.645 8.58809C192.609 8.54835 192.568 8.52574 192.521 8.51684C192.475 8.50862 192.427 8.51684 192.377 8.54219C192.301 8.57918 192.25 8.63742 192.225 8.71758C192.201 8.79705 192.21 8.8779 192.25 8.96217C192.283 9.02931 192.328 9.07384 192.386 9.09508C192.444 9.11701 192.505 9.11221 192.569 9.08138C192.623 9.05466 192.665 9.01492 192.695 8.96285C192.726 8.91078 192.737 8.8546 192.732 8.795ZM191.9 9.49794L191.707 8.77855L191.804 8.73128L191.97 9.34721L192.191 9.23964L192.219 9.3431L191.9 9.49794ZM191.166 9.04164L191.262 8.99574L191.38 9.4349C191.385 9.45272 191.39 9.46916 191.395 9.48355C191.4 9.49931 191.406 9.51232 191.41 9.5226C191.424 9.55138 191.444 9.56987 191.47 9.57741C191.496 9.58495 191.524 9.58084 191.555 9.56508C191.598 9.54452 191.622 9.51712 191.631 9.48149C191.639 9.44587 191.632 9.38695 191.61 9.30542L191.496 8.88064L191.592 8.83336L191.708 9.26773C191.71 9.27184 191.712 9.27938 191.715 9.28829C191.737 9.37119 191.746 9.43353 191.741 9.47738C191.739 9.51712 191.725 9.55137 191.699 9.58289C191.675 9.61304 191.64 9.63976 191.594 9.66168C191.537 9.69046 191.483 9.69731 191.434 9.6836C191.385 9.66922 191.348 9.63633 191.322 9.58495C191.316 9.56987 191.309 9.55412 191.302 9.53493C191.295 9.51643 191.289 9.49588 191.283 9.47601L191.166 9.04164ZM190.781 9.3431L190.846 9.58221L190.928 9.54247C190.959 9.52808 190.98 9.51438 190.992 9.5041C191.006 9.49314 191.015 9.48012 191.022 9.46505C191.031 9.44792 191.035 9.42942 191.034 9.40818C191.034 9.38763 191.03 9.36845 191.021 9.35132C191.003 9.31569 190.979 9.29514 190.95 9.28829C190.92 9.28281 190.882 9.28966 190.837 9.31158C190.829 9.31569 190.822 9.32049 190.811 9.32597C190.802 9.33145 190.792 9.33693 190.781 9.3431ZM190.948 9.96245L190.852 10.0097L190.658 9.29034L190.79 9.22594C190.871 9.18689 190.939 9.17319 190.994 9.18483C191.048 9.19785 191.092 9.23622 191.123 9.30062C191.137 9.33077 191.146 9.36297 191.147 9.39517C191.148 9.426 191.143 9.45751 191.13 9.48629C191.115 9.51849 191.097 9.54521 191.074 9.56782C191.05 9.59043 191.014 9.61304 190.965 9.63702L190.872 9.68223L190.948 9.96245ZM192.488 6.96846C192.46 6.91022 192.445 6.85336 192.44 6.79581C192.435 6.73825 192.442 6.68276 192.46 6.63206C192.478 6.58205 192.506 6.53751 192.542 6.49915C192.577 6.46146 192.62 6.42858 192.672 6.40391C192.763 6.35938 192.85 6.35116 192.93 6.37857C193.013 6.40734 193.074 6.46695 193.119 6.55875C193.141 6.60191 193.156 6.64782 193.163 6.69304C193.171 6.73688 193.172 6.78073 193.165 6.82321C193.154 6.88693 193.13 6.94516 193.091 6.99655C193.052 7.04862 193.001 7.08972 192.939 7.11987C192.846 7.1644 192.759 7.17399 192.678 7.14659C192.597 7.11918 192.534 7.06026 192.488 6.96846ZM192.585 6.91707C192.618 6.98284 192.662 7.02601 192.719 7.04725C192.776 7.0678 192.838 7.06369 192.901 7.03286C192.978 6.99449 193.029 6.93626 193.052 6.85747C193.075 6.77868 193.066 6.69646 193.024 6.60945C192.991 6.54299 192.947 6.49846 192.89 6.47859C192.832 6.45735 192.773 6.46283 192.708 6.49367C192.631 6.53135 192.58 6.59027 192.557 6.66906C192.534 6.74785 192.543 6.83075 192.585 6.91707ZM191.962 7.57959L191.77 6.85952L191.903 6.79512L192.345 7.23154L192.191 6.65467L192.287 6.6074L192.479 7.32678L192.354 7.38775L191.899 6.93831L192.058 7.53163L191.962 7.57959ZM191.64 7.38981L191.457 7.13768L191.444 7.48504L191.64 7.38981ZM191.327 7.88926L191.367 7.05615L191.477 7.0034L191.931 7.59535L191.831 7.64399L191.702 7.47339L191.442 7.60014L191.431 7.83925L191.327 7.88926ZM191.186 7.95778L190.992 7.2384L191.089 7.19181L191.283 7.9105L191.186 7.95778ZM190.946 7.84199L191.064 7.78512C191.064 7.8646 191.043 7.93585 191.002 7.99888C190.962 8.06192 190.907 8.11124 190.833 8.14687C190.793 8.16674 190.754 8.17907 190.714 8.18387C190.674 8.18866 190.636 8.18798 190.599 8.17976C190.548 8.16811 190.504 8.14687 190.465 8.11536C190.426 8.08315 190.394 8.0441 190.371 7.99683C190.347 7.94613 190.331 7.892 190.328 7.83582C190.324 7.78033 190.33 7.72415 190.348 7.67002C190.364 7.61932 190.39 7.57411 190.426 7.53368C190.461 7.49395 190.503 7.46106 190.554 7.4364C190.63 7.3994 190.708 7.38707 190.782 7.40077C190.858 7.41447 190.922 7.45215 190.976 7.51382L190.868 7.56589C190.829 7.53026 190.787 7.50902 190.739 7.50217C190.691 7.496 190.643 7.50422 190.594 7.5282C190.56 7.54602 190.53 7.56794 190.506 7.59672C190.482 7.62549 190.463 7.65838 190.452 7.69606C190.439 7.73443 190.435 7.77416 190.438 7.81664C190.441 7.85912 190.452 7.89886 190.469 7.93585C190.502 8.00162 190.547 8.04547 190.607 8.0674C190.666 8.09 190.726 8.08589 190.788 8.05712C190.831 8.03519 190.867 8.00574 190.896 7.96805C190.924 7.93037 190.94 7.88858 190.946 7.84199ZM189.758 7.8413L189.854 7.79403L189.972 8.23388C189.977 8.25101 189.982 8.26677 189.986 8.28184C189.992 8.2976 189.997 8.31062 190.003 8.32089C190.017 8.35035 190.036 8.36817 190.062 8.3757C190.087 8.38324 190.115 8.37913 190.148 8.36405C190.188 8.34419 190.215 8.3161 190.221 8.27978C190.231 8.24416 190.224 8.18592 190.202 8.10439L190.087 7.67961L190.185 7.63234L190.301 8.06671C190.302 8.07082 190.304 8.07836 190.307 8.08795C190.328 8.17016 190.338 8.2332 190.333 8.27704C190.33 8.3161 190.317 8.35035 190.291 8.38187C190.267 8.41201 190.232 8.43873 190.186 8.46203C190.128 8.49012 190.075 8.49697 190.026 8.48327C189.977 8.46956 189.94 8.43668 189.915 8.38461C189.908 8.37022 189.901 8.35309 189.894 8.33459C189.888 8.31678 189.88 8.29623 189.875 8.27499L189.758 7.8413ZM189.604 8.72923L189.412 8.01053L189.508 7.96326L189.674 8.5785L189.894 8.47093L189.922 8.57439L189.604 8.72923Z" fill="#221E22"/>
<path fill-rule="evenodd" clip-rule="evenodd" d="M202.806 13.0248C202.665 12.3013 202.297 11.943 201.937 11.8169L201.434 11.808C201.435 11.8067 201.435 11.806 201.435 11.8046C201.44 11.6087 201.492 11.6306 201.588 11.4552C201.834 10.9996 201.963 10.5063 202.029 9.9945C202.048 9.84103 202.011 9.78074 201.881 9.73621C201.936 9.32102 202.033 8.90721 201.955 8.4838C201.931 8.34883 201.891 8.21592 201.853 8.05423C201.788 8.1289 201.741 8.18372 201.677 8.25771C201.677 8.08437 201.679 7.93776 201.676 7.79045C201.672 7.65548 201.669 7.51914 201.658 7.38417C201.648 7.26976 201.582 7.18138 201.515 7.0882C201.44 6.98338 201.387 6.85868 201.344 6.73468C201.268 6.51612 201.206 6.29072 201.022 6.13382C200.978 6.09683 200.898 6.05846 200.858 6.07559C200.816 6.09134 200.789 6.17425 200.78 6.2318C200.769 6.3236 200.778 6.41746 200.778 6.53942C200.692 6.39828 200.631 6.2729 200.548 6.16534C200.404 5.9783 200.256 5.79195 200.089 5.62478C199.968 5.50282 199.816 5.44116 199.636 5.54051C199.592 5.56586 199.514 5.55078 199.457 5.53776C199.239 5.48707 199.023 5.42472 198.805 5.37745C198.732 5.36169 198.652 5.37471 198.575 5.37402C198.556 5.37334 198.536 5.37402 198.519 5.37059C198.28 5.31853 198.043 5.26577 197.806 5.21233C197.796 5.21028 197.788 5.20479 197.779 5.20068H197.228C197.075 5.21439 196.925 5.2274 196.765 5.24179C196.778 5.25686 196.781 5.26371 196.786 5.26646C196.872 5.30688 196.959 5.34456 197.044 5.38772C197.827 5.78372 198.494 6.31607 198.988 7.04983C199.057 7.15192 199.094 7.27592 199.147 7.38897C199.139 7.39582 199.13 7.40267 199.122 7.40884C199.031 7.37938 198.94 7.3506 198.822 7.31155C198.84 7.37938 198.848 7.42802 198.866 7.47324C198.9 7.55751 198.94 7.64041 198.979 7.72263C199.109 7.99873 199.233 8.27758 199.374 8.54752C199.451 8.69619 199.542 8.84555 199.715 8.90995C199.729 8.91474 199.741 8.93187 199.751 8.94557C199.89 9.16413 199.987 9.3957 199.981 9.66016C199.978 9.79376 199.934 9.82938 199.803 9.81226C199.771 9.80883 199.738 9.80746 199.7 9.80403C199.71 9.83761 199.71 9.86638 199.722 9.88899C199.934 10.2446 200.123 10.6152 200.365 10.9489C200.596 11.2681 200.718 11.425 200.767 11.7964L200.48 11.7909C200.082 11.9423 199.684 12.3705 199.597 13.0248H199.437V13.7243H199.601L200.153 16.8122L202.251 16.7985L202.81 13.7236H202.958V13.0241H202.806V13.0248ZM198.817 5.54119C198.96 5.57887 199.102 5.62135 199.247 5.65287C199.366 5.67959 199.486 5.69466 199.607 5.70973C199.638 5.71384 199.68 5.70905 199.704 5.69055C199.786 5.6282 199.859 5.65492 199.929 5.70288C199.979 5.73782 200.03 5.77345 200.071 5.8173C200.375 6.14821 200.628 6.50927 200.741 6.95392C200.746 6.96967 200.753 6.98406 200.759 6.99982C200.968 6.80387 200.943 6.55038 200.936 6.30168C200.949 6.29757 200.963 6.29277 200.976 6.28866C201.032 6.40513 201.092 6.52092 201.141 6.64013C201.189 6.75523 201.22 6.87787 201.265 6.99502C201.283 7.04504 201.305 7.1019 201.343 7.13684C201.538 7.31566 201.525 7.54792 201.52 7.77949C201.516 7.92885 201.507 8.07821 201.512 8.22688C201.517 8.40707 201.59 8.45434 201.786 8.39336C201.8 8.54478 201.838 8.69413 201.821 8.83732C201.766 9.31143 201.691 9.78485 201.623 10.2576C201.619 10.2843 201.615 10.3103 201.627 10.3446C201.7 10.2309 201.773 10.1171 201.846 10.0041C201.857 10.0089 201.868 10.013 201.881 10.0171C201.834 10.2089 201.793 10.4028 201.738 10.5919C201.726 10.6296 201.665 10.6639 201.62 10.6748C201.6 10.6796 201.55 10.631 201.538 10.5974C201.507 10.5125 201.472 10.4241 201.468 10.3343C201.434 9.72456 201.407 9.1148 201.381 8.50367C201.373 8.32143 201.362 8.13507 201.485 7.9679C201.453 7.93159 201.42 7.89596 201.382 7.85349C201.196 8.05217 201.226 8.29265 201.209 8.55231C201.152 8.39816 201.105 8.26798 201.058 8.1385C201.056 8.13576 201.055 8.13027 201.055 8.1289C201.151 8.01243 201.087 7.88295 201.092 7.75825C201.095 7.70618 201.137 7.65617 201.169 7.59177C201.146 7.56573 201.113 7.52874 201.076 7.48626C200.973 7.57121 200.925 7.67535 200.925 7.81717C200.811 7.6178 200.703 7.43419 200.598 7.24989C200.589 7.2355 200.585 7.21632 200.587 7.20056C200.617 6.93679 200.548 6.68877 200.471 6.44144C200.465 6.42226 200.463 6.40171 200.456 6.37499H200.297C200.344 6.57504 200.393 6.77167 200.439 6.96762C200.43 6.97241 200.421 6.97721 200.411 6.98201C199.978 6.39143 199.434 5.92829 198.79 5.57613C198.8 5.56517 198.809 5.55352 198.817 5.54119ZM199.098 6.92583C198.676 6.30099 198.116 5.82483 197.475 5.43705C197.445 5.41855 197.416 5.39937 197.362 5.3658C197.843 5.3473 198.281 5.39868 198.683 5.633C198.698 5.6419 198.709 5.66246 198.717 5.68027C198.73 5.70699 198.731 5.74467 198.75 5.7618C198.921 5.91116 199.094 6.05914 199.268 6.20234C199.447 6.34827 199.629 6.4894 199.808 6.63396C199.834 6.6552 199.854 6.68261 199.884 6.71618C199.588 6.83265 199.496 7.13136 199.312 7.33759C199.238 7.19577 199.183 7.0512 199.098 6.92583ZM200.161 9.68619C200.135 9.54369 200.121 9.40187 200.077 9.27032C200.028 9.12782 199.956 8.99148 199.88 8.85993C199.851 8.80855 199.781 8.77977 199.732 8.73935C199.701 8.71332 199.666 8.68934 199.642 8.65782C199.46 8.42693 199.342 8.16111 199.22 7.8898C199.364 7.8898 199.498 7.88432 199.632 7.89185C199.697 7.89596 199.765 7.91378 199.822 7.94392C199.942 8.00627 200.057 8.08026 200.171 8.15288C200.204 8.17412 200.232 8.20564 200.269 8.23852C200.197 8.30635 200.241 8.35568 200.288 8.40707C200.463 8.59684 200.682 8.67837 200.934 8.6818C201.005 8.6818 201.034 8.70647 201.052 8.77155C201.157 9.12645 201.264 9.48065 201.263 9.8561C201.263 9.89584 201.257 9.93626 201.253 9.97052C201.014 9.86296 200.787 9.7595 200.561 9.65673C200.42 9.59507 200.29 9.63001 200.161 9.68619ZM200.465 10.781C200.574 10.6851 200.679 10.6015 200.774 10.507C200.909 10.3672 201.011 10.348 201.141 10.4576C201.16 10.4727 201.178 10.5118 201.171 10.5303C201.123 10.6591 201.083 10.7961 201.011 10.9119C200.91 11.0763 200.696 11.0749 200.569 10.9242C200.528 10.8721 200.49 10.8153 200.465 10.781ZM202.631 13.0015C202.633 13.0097 202.635 13.0166 202.636 13.0248H202.588C202.602 13.0186 202.619 13.0145 202.631 13.0015ZM200.479 11.9444L201.937 11.9711C202.203 12.1321 202.428 12.2684 202.573 12.7645C202.408 12.3088 202.095 11.9683 201.757 11.9683C201.483 11.9683 201.741 12.2616 201.789 12.6322C201.707 12.8357 201.742 12.9823 201.853 13.0248H199.766C199.85 12.376 200.183 12.1568 200.479 11.9444ZM202.43 13.0248H202.012C202.055 13.0145 202.101 12.9981 202.151 12.9707C202.244 12.9707 202.343 13.0036 202.43 13.0248ZM202.104 16.6457L200.297 16.6594L199.763 13.725H201.769C201.742 13.7325 201.715 13.7387 201.682 13.7503C202.212 15.3714 201.738 15.3296 201.571 15.8496C201.258 16.832 201.573 16.5813 201.92 16.6477C202.007 16.6642 202.099 16.4819 202.186 16.201L202.104 16.6457ZM202.582 14.0408C202.595 13.9203 202.602 13.8141 202.608 13.725H202.64L202.582 14.0408ZM202.78 13.5729H199.608V13.1885H202.78V13.5729Z" fill="black"/>
<path fill-rule="evenodd" clip-rule="evenodd" d="M202.104 16.6457L200.297 16.6594L199.763 13.725H201.769C201.742 13.7325 201.715 13.7387 201.682 13.7503C202.212 15.3713 201.738 15.3295 201.571 15.8495C201.258 16.832 201.573 16.5813 201.92 16.6477C202.007 16.6648 202.099 16.4819 202.186 16.201L202.104 16.6457Z" fill="white"/>
<path fill-rule="evenodd" clip-rule="evenodd" d="M202.582 14.0408C202.595 13.9202 202.602 13.814 202.608 13.725H202.64L202.582 14.0408Z" fill="white"/>
<path d="M202.78 13.1887H199.608V13.5731H202.78V13.1887Z" fill="white"/>
<path fill-rule="evenodd" clip-rule="evenodd" d="M200.479 11.9445L201.937 11.9705C202.203 12.1315 202.428 12.2678 202.573 12.7646C202.408 12.3089 202.095 11.9678 201.757 11.9678C201.483 11.9678 201.74 12.261 201.789 12.6316C201.707 12.8351 201.742 12.9817 201.853 13.0242H199.766C199.85 12.3761 200.183 12.1568 200.479 11.9445Z" fill="white"/>
<path fill-rule="evenodd" clip-rule="evenodd" d="M200.465 10.7804C200.574 10.6845 200.679 10.6016 200.774 10.507C200.909 10.3673 201.011 10.3481 201.141 10.457C201.16 10.4728 201.178 10.5118 201.171 10.5296C201.123 10.6591 201.083 10.7955 201.011 10.9113C200.91 11.0757 200.695 11.0743 200.569 10.9236C200.528 10.8722 200.49 10.8153 200.465 10.7804Z" fill="white"/>
<path fill-rule="evenodd" clip-rule="evenodd" d="M198.817 5.54126C198.96 5.57894 199.102 5.62142 199.247 5.65294C199.366 5.67965 199.486 5.69473 199.607 5.7098C199.638 5.71391 199.68 5.70912 199.704 5.69062C199.786 5.62827 199.859 5.65499 199.929 5.70295C199.979 5.73789 200.03 5.77352 200.071 5.81736C200.375 6.14759 200.628 6.50934 200.741 6.95399C200.746 6.96974 200.753 6.98413 200.759 6.99989C200.968 6.80394 200.943 6.55045 200.936 6.30175C200.949 6.29764 200.963 6.29284 200.976 6.28873C201.032 6.4052 201.092 6.52099 201.141 6.6402C201.188 6.7553 201.22 6.87794 201.265 6.99509C201.283 7.04511 201.305 7.10197 201.343 7.13691C201.538 7.31573 201.525 7.54799 201.52 7.77956C201.516 7.92892 201.507 8.07828 201.511 8.22695C201.517 8.40714 201.59 8.45441 201.786 8.39343C201.8 8.54485 201.838 8.6942 201.821 8.83739C201.766 9.3115 201.691 9.78492 201.623 10.2577C201.619 10.2844 201.615 10.3104 201.627 10.3447C201.7 10.2309 201.773 10.1172 201.846 10.0042C201.857 10.009 201.868 10.0131 201.881 10.0172C201.834 10.209 201.793 10.4029 201.738 10.592C201.727 10.6297 201.665 10.6639 201.62 10.6749C201.6 10.6797 201.55 10.631 201.538 10.5975C201.507 10.5125 201.472 10.4241 201.468 10.3351C201.434 9.72531 201.407 9.11487 201.381 8.50442C201.373 8.32218 201.362 8.13514 201.485 7.96797C201.453 7.93166 201.42 7.89603 201.382 7.85356C201.196 8.05224 201.226 8.29272 201.209 8.55238C201.152 8.39823 201.105 8.26805 201.058 8.13857C201.056 8.13583 201.054 8.13034 201.055 8.12897C201.151 8.01319 201.086 7.88302 201.091 7.75901C201.095 7.70694 201.137 7.65692 201.169 7.59252C201.146 7.56649 201.113 7.52949 201.076 7.48701C200.973 7.57197 200.925 7.67611 200.925 7.81793C200.811 7.61856 200.703 7.43494 200.598 7.25064C200.589 7.23626 200.585 7.21707 200.587 7.20132C200.617 6.93754 200.548 6.68953 200.471 6.4422C200.465 6.42301 200.463 6.40246 200.456 6.37574H200.297C200.344 6.5758 200.393 6.77243 200.439 6.96837C200.43 6.97317 200.421 6.97797 200.41 6.98276C199.978 6.39218 199.433 5.92904 198.79 5.57689C198.8 5.56524 198.809 5.55359 198.817 5.54126Z" fill="white"/>
<path fill-rule="evenodd" clip-rule="evenodd" d="M200.161 9.68619C200.134 9.54436 200.121 9.40186 200.077 9.271C200.027 9.12849 199.956 8.99215 199.88 8.86061C199.851 8.80923 199.781 8.78045 199.732 8.74003C199.701 8.71468 199.666 8.6907 199.642 8.6585C199.46 8.42693 199.342 8.16178 199.22 7.89047C199.364 7.89047 199.498 7.88499 199.631 7.89253C199.697 7.89664 199.765 7.91445 199.822 7.9446C199.942 8.00763 200.057 8.08162 200.171 8.15425C200.204 8.17549 200.232 8.207 200.269 8.23989C200.197 8.30772 200.241 8.35704 200.288 8.40843C200.462 8.59821 200.682 8.67974 200.934 8.68316C201.005 8.68385 201.034 8.70783 201.052 8.77291C201.157 9.12781 201.264 9.48202 201.263 9.85678C201.263 9.8972 201.257 9.93694 201.253 9.97188C201.014 9.86432 200.787 9.76086 200.56 9.6581C200.42 9.59506 200.29 9.63001 200.161 9.68619Z" fill="white"/>
<path fill-rule="evenodd" clip-rule="evenodd" d="M199.098 6.92595C198.676 6.30112 198.116 5.82427 197.475 5.43649C197.445 5.41799 197.416 5.39881 197.362 5.36524C197.843 5.34674 198.282 5.39881 198.683 5.63243C198.698 5.64134 198.709 5.66189 198.717 5.68039C198.73 5.70711 198.731 5.74479 198.75 5.76124C198.921 5.91059 199.094 6.05858 199.268 6.20177C199.447 6.3477 199.629 6.48884 199.808 6.6334C199.834 6.65464 199.854 6.68204 199.884 6.71562C199.588 6.83209 199.496 7.1308 199.312 7.33702C199.238 7.19589 199.183 7.05133 199.098 6.92595Z" fill="white"/>
<path d="M214.022 39.7132C214.536 39.4015 215.005 39.1884 215.378 38.8657C215.609 38.6677 215.848 38.2738 215.801 38.0203C215.753 37.7675 215.376 37.4352 215.102 37.39C212.9 37.0351 210.692 36.7144 208.479 36.4459C207.958 36.3822 207.76 36.2719 207.777 35.721C207.806 34.7063 207.621 34.5563 206.594 34.5536C201.955 34.5419 197.514 35.584 193.25 37.3071C191.764 37.9093 190.523 37.8682 189.092 37.268C185.104 35.595 180.96 34.5885 176.596 34.6817C175.328 34.7077 175.25 34.7605 175.214 36.0033C175.21 36.1321 175.187 36.2602 175.168 36.4349C174.923 36.4664 174.687 36.4918 174.453 36.5315C172.451 36.8734 170.449 37.218 168.446 37.5599C167.997 37.6366 167.647 37.8209 167.625 38.3361C167.603 38.8582 167.97 39.0507 168.389 39.1802C168.918 39.3433 169.448 39.5002 170.086 39.692C169.797 39.8763 169.619 39.9948 169.437 40.1038C168.63 40.5881 167.795 41.0321 167.03 41.5733C166.786 41.746 166.558 42.2194 166.627 42.4729C166.693 42.7148 167.135 42.9196 167.449 43.0059C167.725 43.0799 168.053 42.9724 168.358 42.9367C169.64 42.7881 170.918 42.6072 172.203 42.4894C174.159 42.3105 176.088 42.5476 177.999 42.9778C179.099 43.2252 179.398 42.9772 179.413 41.8625C179.416 41.6713 179.439 41.4802 179.456 41.2335C179.713 41.2911 179.927 41.3226 180.129 41.387C182.564 42.1619 185.018 42.8833 187.427 43.7356C189.568 44.4933 191.67 44.6139 193.852 43.961C196.009 43.3149 198.192 42.76 200.364 42.1667C201.618 41.8241 202.875 41.4857 204.187 41.1287C204.213 41.4535 204.24 41.6672 204.247 41.883C204.277 42.8497 204.557 43.0176 205.513 42.8963C207.027 42.7072 208.553 42.475 210.068 42.5017C211.723 42.5305 213.371 42.8586 215.026 42.9916C215.326 43.0155 215.813 42.7997 215.917 42.5647C216.024 42.3167 215.859 41.8488 215.663 41.5912C215.18 40.9506 214.61 40.3737 214.022 39.7132Z" fill="white"/>
<path fill-rule="evenodd" clip-rule="evenodd" d="M175.933 35.6149C183.719 35.4423 187.363 37.9286 191.145 38.9898C196.387 36.8454 201.148 35.4327 206.678 35.4546V39.8106C204.133 39.638 192.458 43.8515 190.645 43.5062C188.83 43.8522 181.152 39.9607 175.91 39.7661C175.91 36.9728 175.933 38.3862 175.933 35.6149Z" fill="white"/>
<path fill-rule="evenodd" clip-rule="evenodd" d="M212.715 39.5742C212.846 39.4871 213.244 39.3344 213.842 38.9678C214.945 38.2896 215.254 38.1025 215.254 38.1025C211.51 37.2173 207.815 37.0015 207.04 37.0077C206.987 37.0084 206.961 37.0029 206.953 37.0015L206.949 35.1805C201.227 35.1633 196.361 36.5596 191.119 38.704C187.336 37.6435 183.455 35.0777 175.63 35.3264V37.0625H175.628C175.628 37.0625 175.595 37.0707 175.534 37.07C174.758 37.0639 171.427 37.4427 167.683 38.3286C167.683 38.3286 168.691 38.7177 170.156 39.0884C170.755 39.2398 171.237 39.4556 171.37 39.5426C171.37 39.5426 168.684 41.1767 166.469 42.4942C166.469 42.4942 169.342 42.1722 171.611 41.8974C173.467 41.6734 175.87 41.9008 178.358 42.4407L178.576 42.4907L178.591 40.4436C183.465 41.4767 189.109 44.0795 190.604 43.7938C192.07 44.0734 200.161 41.3199 204.571 40.384L204.643 42.4277L204.675 42.4017C207.221 41.8344 209.064 41.6912 210.962 41.9207C213.231 42.1941 215.426 42.4743 215.426 42.4743C213.595 40.5744 212.715 39.5742 212.715 39.5742ZM178.226 41.8515C178.044 41.5316 177.77 41.228 177.488 40.9622C177.203 40.6477 176.864 40.336 176.475 40.0791C177.014 40.1455 177.731 40.2689 178.271 40.3764L178.226 41.8515ZM171.544 41.5864C169.342 41.8179 167.757 42.081 167.757 42.081C169.936 40.7361 171.851 39.5262 171.851 39.5262C171.737 39.1412 168.726 38.3862 168.726 38.3862C172.797 37.4722 175.627 37.3365 175.627 37.3365L175.629 40.0387C175.713 40.0764 175.786 40.1216 175.866 40.1634C176.27 40.4073 177.097 40.9903 177.731 41.7015C177.917 41.9454 178.008 42.1139 178.008 42.1139C175.829 41.5144 173.45 41.3856 171.544 41.5864ZM204.56 40.0846C200.293 40.9917 192.136 43.7904 190.644 43.5054C189.121 43.7966 183.469 41.1027 178.593 40.114V40.1127C177.449 39.8592 176.492 39.7859 175.924 39.766C175.919 39.7653 175.915 39.7653 175.915 39.7653C175.91 36.9721 175.932 38.3855 175.932 35.6141C183.719 35.4415 187.362 37.9278 191.144 38.9891C196.387 36.8446 201.148 35.4319 206.677 35.4538V36.9912L206.662 36.9906V39.7886C206.655 39.7961 206.65 39.803 206.644 39.8098C206.286 39.7907 205.755 39.853 205.104 39.975C205.05 39.9852 204.992 39.9962 204.933 40.0072C204.873 40.0195 204.808 40.0332 204.746 40.0469C204.682 40.0599 204.628 40.0695 204.56 40.0846ZM204.882 40.3751C205.015 40.2894 206.319 40.1271 206.319 40.1271C206.319 40.1271 205.476 40.8595 204.93 41.8234L204.882 40.3751ZM205.187 42.0125C205.187 42.0125 205.219 41.9591 205.272 41.8755C206.227 40.7176 206.266 40.3922 206.874 40.1284C206.897 40.1229 206.921 40.114 206.944 40.1133V40.0969C206.947 40.0955 206.949 40.0949 206.952 40.0942V40.0901C206.954 40.0914 206.956 40.0914 206.956 40.0914L206.958 39.9743L206.967 39.8064C206.963 39.8064 206.961 39.8064 206.958 39.8071L206.953 37.2838C207.032 37.2858 209.912 37.4071 214.459 38.2841C214.459 38.2841 212.723 39.3268 212.099 39.5063C212.099 39.5063 212.963 40.0113 213.884 41.2233C214.119 41.5316 214.415 41.8118 214.672 42.1324C214.672 42.1324 213.231 41.8412 211.029 41.609C209.122 41.4075 207.367 41.4123 205.187 42.0125Z" fill="#221E22"/>
<path fill-rule="evenodd" clip-rule="evenodd" d="M171.544 41.5864C169.342 41.818 167.757 42.0811 167.757 42.0811C169.936 40.7362 171.851 39.5262 171.851 39.5262C171.737 39.1412 168.726 38.3862 168.726 38.3862C172.797 37.4722 175.626 37.3373 175.626 37.3373L175.628 40.0387C175.713 40.0764 175.785 40.1216 175.865 40.1634C176.269 40.4073 177.096 40.9904 177.73 41.7015C177.916 41.9454 178.008 42.114 178.008 42.114C175.829 41.5145 173.45 41.3857 171.544 41.5864Z" fill="white"/>
<path fill-rule="evenodd" clip-rule="evenodd" d="M178.225 41.8515C178.044 41.5316 177.77 41.2281 177.488 40.9622C177.203 40.6478 176.863 40.336 176.475 40.0791C177.014 40.1456 177.731 40.2689 178.271 40.3764L178.225 41.8515Z" fill="white"/>
<path fill-rule="evenodd" clip-rule="evenodd" d="M204.56 40.0846C200.293 40.9917 192.136 43.7905 190.644 43.5054C189.121 43.7966 183.469 41.1027 178.593 40.1141V40.1127C177.449 39.8592 176.491 39.7859 175.924 39.766C175.919 39.7654 175.915 39.7654 175.915 39.7654C175.91 36.9721 175.932 38.3855 175.932 35.6142C183.719 35.4415 187.362 37.9278 191.144 38.9891C196.387 36.8447 201.148 35.4319 206.677 35.4539V36.9913L206.662 36.9906V39.7886C206.655 39.7962 206.65 39.803 206.644 39.8099C206.285 39.7907 205.754 39.8531 205.104 39.975C205.05 39.9853 204.992 39.9962 204.933 40.0072C204.873 40.0195 204.808 40.0332 204.746 40.0469C204.682 40.06 204.628 40.0695 204.56 40.0846Z" fill="white"/>
<path fill-rule="evenodd" clip-rule="evenodd" d="M204.882 40.3751C205.015 40.2894 206.319 40.1271 206.319 40.1271C206.319 40.1271 205.476 40.8595 204.93 41.8234L204.882 40.3751Z" fill="white"/>
<path fill-rule="evenodd" clip-rule="evenodd" d="M205.187 42.0125C205.187 42.0125 205.219 41.9591 205.272 41.8755C206.227 40.7177 206.266 40.3922 206.874 40.1285C206.897 40.123 206.921 40.1141 206.944 40.1134V40.0969C206.947 40.0956 206.949 40.0949 206.952 40.0942V40.0901C206.954 40.0915 206.956 40.0915 206.956 40.0915L206.958 39.9743L206.967 39.8064C206.963 39.8064 206.961 39.8064 206.958 39.8071L206.953 37.2838C207.032 37.2859 209.912 37.4071 214.459 38.2841C214.459 38.2841 212.723 39.3269 212.099 39.5064C212.099 39.5064 212.963 40.0113 213.884 41.2233C214.118 41.5316 214.415 41.8118 214.672 42.1324C214.672 42.1324 213.231 41.8413 211.029 41.609C209.122 41.4076 207.367 41.4124 205.187 42.0125Z" fill="white"/>
<path fill-rule="evenodd" clip-rule="evenodd" d="M204.705 37.7304C204.738 38.0387 204.834 38.2717 204.991 38.4279C205.147 38.5841 205.326 38.6519 205.525 38.6313C205.728 38.6108 205.889 38.506 206.009 38.3217C206.129 38.136 206.17 37.8756 206.135 37.5406C206.111 37.3262 206.056 37.1378 205.966 36.9747C205.897 36.8521 205.805 36.7555 205.685 36.689C205.567 36.6226 205.443 36.5952 205.313 36.6089C205.104 36.6301 204.941 36.7335 204.823 36.9185C204.705 37.1028 204.667 37.3728 204.705 37.7304ZM204.418 37.7551C204.373 37.3289 204.432 36.9912 204.599 36.7418C204.768 36.4924 204.994 36.3533 205.281 36.3238C205.465 36.304 205.639 36.3382 205.803 36.4246C205.966 36.5109 206.103 36.6486 206.214 36.8343C206.323 37.0199 206.393 37.2481 206.422 37.5173C206.462 37.8887 206.408 38.2004 206.261 38.4512C206.099 38.7286 205.865 38.8828 205.559 38.9136C205.248 38.9458 204.985 38.8396 204.769 38.5943C204.571 38.3737 204.454 38.0935 204.418 37.7551ZM203.041 39.2719L202.595 36.7918L202.869 36.7438L203.263 38.9314L204.286 38.7547L204.339 39.0472L203.041 39.2719ZM201.438 39.6474L200.859 37.1946L201.131 37.1337L201.641 39.2959L202.654 39.0671L202.722 39.3569L201.438 39.6474ZM199.565 40.1619L198.899 37.7304L200.371 37.344L200.45 37.6304L199.246 37.9469L199.45 38.6909L200.577 38.395L200.655 38.6814L199.528 38.9773L199.754 39.8043L201.005 39.4761L201.083 39.7638L199.565 40.1619ZM197.841 40.3291L198.344 40.1873C198.455 40.1564 198.535 40.1229 198.582 40.0886C198.651 40.0386 198.694 39.9749 198.716 39.8981C198.735 39.8221 198.731 39.7344 198.702 39.6357C198.675 39.5439 198.634 39.4713 198.576 39.4199C198.52 39.3672 198.456 39.335 198.383 39.3233C198.309 39.3124 198.203 39.3274 198.065 39.3658L197.596 39.4973L197.841 40.3291ZM197.512 39.2116L197.952 39.0883C198.066 39.0561 198.146 39.0246 198.189 38.9965C198.252 38.954 198.295 38.8999 198.317 38.8355C198.339 38.7704 198.336 38.6903 198.308 38.5971C198.283 38.5101 198.244 38.4416 198.193 38.3943C198.141 38.347 198.085 38.3196 198.021 38.3121C197.958 38.3059 197.853 38.3251 197.706 38.3662L197.299 38.4792L197.512 39.2116ZM197.656 40.6908L196.947 38.2703L197.708 38.0565C197.861 38.014 197.99 38.0031 198.093 38.0243C198.197 38.0456 198.291 38.0983 198.379 38.1812C198.465 38.2641 198.526 38.3662 198.561 38.4861C198.594 38.5971 198.599 38.7033 198.575 38.8067C198.552 38.9095 198.504 39.0006 198.428 39.0794C198.559 39.089 198.673 39.1335 198.771 39.2151C198.868 39.2959 198.938 39.411 198.981 39.559C199.025 39.7063 199.032 39.8426 199.003 39.9708C198.973 40.0982 198.916 40.2016 198.828 40.2798C198.741 40.3585 198.607 40.4236 198.428 40.473L197.656 40.6908ZM194.995 41.4904L194.241 39.0828L195.7 38.6457L195.788 38.9307L194.597 39.2877L194.827 40.0242L195.944 39.6905L196.031 39.9735L194.916 40.3072L195.171 41.1259L196.411 40.7552L196.499 41.0396L194.995 41.4904ZM193.128 41.6781L193.565 41.5712C193.741 41.5287 193.866 41.4691 193.942 41.3896C194.02 41.3122 194.066 41.2047 194.083 41.067C194.106 40.8868 194.088 40.6799 194.029 40.449C193.966 40.2016 193.882 40.0146 193.777 39.8906C193.672 39.7652 193.56 39.6933 193.44 39.672C193.36 39.657 193.24 39.6693 193.083 39.7077L192.654 39.8125L193.128 41.6781ZM192.931 42.0323L192.309 39.5898L193.015 39.4172C193.189 39.3747 193.327 39.3576 193.425 39.3651C193.554 39.3761 193.675 39.4213 193.79 39.5028C193.903 39.585 194.003 39.6988 194.092 39.844C194.182 39.9893 194.253 40.1694 194.307 40.3853C194.379 40.6621 194.397 40.9073 194.363 41.119C194.329 41.3328 194.259 41.4952 194.148 41.6075C194.04 41.7199 193.88 41.8007 193.67 41.8514L192.931 42.0323ZM189.657 40.362C189.569 40.6593 189.568 40.9094 189.655 41.1122C189.74 41.3136 189.88 41.4424 190.072 41.4965C190.268 41.552 190.458 41.515 190.64 41.3869C190.822 41.2581 190.96 41.0313 191.054 40.71C191.115 40.501 191.135 40.3065 191.114 40.1229C191.099 39.9838 191.048 39.8605 190.963 39.7549C190.88 39.6501 190.776 39.5796 190.649 39.5439C190.447 39.4871 190.256 39.5234 190.077 39.6515C189.898 39.7789 189.758 40.0153 189.657 40.362ZM189.382 40.2791C189.503 39.8653 189.688 39.5748 189.938 39.4055C190.188 39.2363 190.452 39.1897 190.73 39.2671C190.907 39.3171 191.056 39.4124 191.174 39.5535C191.292 39.6933 191.366 39.8707 191.397 40.0838C191.428 40.2962 191.405 40.5319 191.329 40.7929C191.224 41.1512 191.055 41.4212 190.823 41.5993C190.566 41.798 190.29 41.8535 189.993 41.7706C189.694 41.687 189.491 41.4917 189.383 41.1855C189.287 40.9066 189.286 40.6052 189.382 40.2791ZM188.378 41.2492L189.131 38.8424L189.397 38.9225L188.646 41.3307L188.378 41.2492ZM187.076 39.5104L187.601 39.657C187.766 39.7042 187.898 39.7008 187.995 39.6494C188.095 39.5974 188.165 39.498 188.208 39.3494C188.236 39.2534 188.241 39.1664 188.223 39.0876C188.205 39.0095 188.174 38.9499 188.127 38.9088C188.081 38.8684 187.989 38.8287 187.849 38.7903L187.33 38.6444L187.076 39.5104ZM186.437 40.7045L187.145 38.2847L187.909 38.4984C188.089 38.5498 188.217 38.6019 188.293 38.6567C188.399 38.7307 188.469 38.8355 188.506 38.9677C188.543 39.1007 188.536 39.2493 188.487 39.4144C188.424 39.6323 188.315 39.7947 188.161 39.9009C188.008 40.005 187.791 40.0194 187.512 39.9413L186.993 39.7961L186.705 40.7799L186.437 40.7045ZM185.704 40.5072L186.413 38.088L186.681 38.1627L185.972 40.5826L185.704 40.5072ZM185.271 39.4562L185.522 39.6049C185.392 39.8639 185.234 40.0434 185.051 40.1407C184.866 40.24 184.666 40.2612 184.45 40.2099C184.26 40.1633 184.109 40.079 183.998 39.9557C183.887 39.8317 183.814 39.6597 183.78 39.4391C183.746 39.2185 183.762 38.9712 183.831 38.6999C183.9 38.4313 184 38.2148 184.133 38.0497C184.266 37.8846 184.419 37.7715 184.59 37.7126C184.76 37.653 184.935 37.6461 185.115 37.69C185.312 37.7386 185.467 37.84 185.579 37.9949C185.69 38.1504 185.743 38.3511 185.741 38.5978L185.457 38.6087C185.452 38.247 185.314 38.0319 185.041 37.9654C184.904 37.9325 184.777 37.9373 184.66 37.9812C184.542 38.0257 184.436 38.112 184.34 38.2415C184.243 38.3717 184.168 38.5478 184.11 38.7684C184.026 39.1034 184.021 39.3685 184.099 39.5645C184.177 39.7618 184.315 39.8837 184.515 39.9324C184.662 39.9694 184.803 39.9488 184.936 39.8721C185.07 39.7947 185.182 39.6556 185.271 39.4562ZM182.834 39.7906L183.413 37.3378L183.685 37.3988L183.106 39.8522L182.834 39.7906ZM180.721 39.3165L181.254 36.8528L181.535 36.911L182.199 39.0698L182.619 37.1371L182.88 37.1919L182.345 39.6535L182.066 39.596L181.402 37.4358L180.983 39.3706L180.721 39.3165ZM180.368 36.7493L180.644 36.7925L180.412 38.2292C180.373 38.4697 180.317 38.6635 180.245 38.8102C180.171 38.9575 180.064 39.065 179.923 39.1349C179.783 39.2055 179.615 39.2253 179.42 39.1959C179.145 39.1527 178.951 39.0404 178.84 38.8581C178.73 38.6772 178.708 38.3833 178.773 37.9764L179.005 36.5397L179.281 36.5814L179.048 38.0168C179.012 38.2408 179.004 38.4066 179.023 38.5135C179.042 38.6204 179.089 38.7046 179.161 38.7704C179.235 38.8369 179.329 38.8773 179.446 38.8958C179.641 38.9266 179.794 38.8944 179.899 38.7992C180.005 38.704 180.084 38.4991 180.135 38.1853L180.368 36.7493ZM176.18 38.8567L176.27 36.3403L176.688 36.3547L177.125 38.1538L177.211 38.5299C177.24 38.4374 177.282 38.3039 177.339 38.1291L177.906 36.3965L178.282 36.4095L178.192 38.9246L177.923 38.9157L177.997 36.8096L177.309 38.8937L177.058 38.8855L176.524 36.7233L176.448 38.8643L176.18 38.8567Z" fill="#221E22"/>
<path d="M191.675 45.4942H190.097C186.804 44.4871 183.511 43.4806 180.216 42.4735C179.83 43.9712 179.298 44.2856 177.792 43.9636C175.881 43.5573 173.954 43.3155 171.998 43.5292C170.673 43.6759 169.347 43.8259 168.027 44.0212C167.038 44.1685 166.263 43.9437 165.793 42.999V42.0795C166.556 41.4396 167.318 40.7997 168.071 40.1687C167.189 39.7549 166.804 39.2383 166.867 38.5272C166.935 37.7468 167.428 37.3015 168.475 37.0788C169.095 36.9466 169.713 36.8061 170.337 36.6958C171.707 36.4533 173.078 36.2272 174.441 35.9956C174.561 34.6843 175.062 34.1437 176.328 34.2253C178.526 34.3685 180.767 34.4068 182.901 34.8864C185.508 35.4715 188.03 36.4512 190.578 37.296C191.069 37.4577 191.474 37.4467 191.953 37.2569C194.986 36.0552 198.082 35.0597 201.316 34.5521C202.521 34.3623 203.733 34.2253 204.943 34.0649H207.44C207.954 34.3698 208.48 34.6953 208.492 35.3701C208.502 35.8949 208.748 35.9908 209.213 36.0532C211.271 36.3272 213.324 36.6444 215.376 36.9651C216.027 37.0665 216.433 37.4885 216.565 38.1243C216.698 38.7574 216.483 39.2897 215.956 39.6782C215.726 39.846 215.485 39.9926 215.254 40.1468C215.272 40.2085 215.272 40.2585 215.297 40.2872C215.655 40.699 216.022 41.1025 216.377 41.517C216.804 42.0124 216.888 42.5769 216.636 43.1696C216.377 43.7738 215.885 44.0657 215.23 44.0513C214.881 44.0451 214.531 44.0102 214.184 43.9657C211.191 43.5758 208.202 43.1134 205.198 43.9698C204.871 44.063 204.347 43.8643 204.069 43.6217C203.738 43.3347 203.575 42.8544 203.306 42.4015C201.736 42.8428 200.101 43.3251 198.454 43.7608C196.199 44.3562 193.935 44.918 191.675 45.4942ZM214.022 39.7131C214.536 39.4014 215.005 39.1883 215.378 38.8656C215.609 38.6676 215.848 38.2737 215.801 38.0202C215.753 37.7674 215.376 37.4351 215.102 37.3899C212.9 37.035 210.692 36.7143 208.479 36.4457C207.958 36.382 207.76 36.2717 207.777 35.7209C207.806 34.7062 207.621 34.5562 206.594 34.5534C201.955 34.5418 197.514 35.5839 193.25 37.3069C191.764 37.9092 190.523 37.8681 189.092 37.2679C185.104 35.5948 180.96 34.5884 176.596 34.6816C175.328 34.7076 175.25 34.7603 175.214 36.0032C175.21 36.132 175.187 36.2601 175.168 36.4348C174.923 36.4663 174.687 36.4917 174.453 36.5314C172.451 36.8733 170.449 37.2179 168.446 37.5598C167.997 37.6365 167.647 37.8208 167.625 38.336C167.603 38.8581 167.97 39.0506 168.389 39.1801C168.918 39.3431 169.448 39.5 170.086 39.6919C169.797 39.8762 169.619 39.9947 169.437 40.1036C168.63 40.588 167.795 41.032 167.03 41.5732C166.786 41.7459 166.558 42.2193 166.627 42.4728C166.693 42.7146 167.135 42.9195 167.449 43.0058C167.725 43.0798 168.053 42.9722 168.358 42.9366C169.64 42.7879 170.918 42.6071 172.203 42.4892C174.159 42.3104 176.088 42.5475 177.999 42.9777C179.099 43.2251 179.398 42.977 179.413 41.8623C179.416 41.6712 179.439 41.48 179.456 41.2334C179.713 41.2909 179.927 41.3225 180.129 41.3869C182.564 42.1617 185.018 42.8832 187.427 43.7355C189.568 44.4932 191.67 44.6138 193.852 43.9609C196.009 43.3148 198.192 42.7599 200.364 42.1665C201.618 41.824 202.875 41.4855 204.187 41.1286C204.213 41.4533 204.24 41.6671 204.247 41.8829C204.277 42.8496 204.557 43.0175 205.513 42.8962C207.027 42.7071 208.553 42.4748 210.068 42.5016C211.723 42.5303 213.371 42.8585 215.026 42.9914C215.326 43.0154 215.813 42.7996 215.917 42.5646C216.024 42.3166 215.859 41.8486 215.663 41.591C215.18 40.9504 214.61 40.3736 214.022 39.7131Z" fill="black"/>
<path d="M146.696 28.5079C146.696 29.6993 145.733 30.6558 144.548 30.6558C143.359 30.6558 142.395 29.6993 142.395 28.5079C142.395 27.3226 143.358 26.3607 144.548 26.3607C145.733 26.3607 146.696 27.3219 146.696 28.5079Z" fill="#D9D8D6"/>
<path d="M146.696 42.3729C146.696 43.5609 145.733 44.5207 144.548 44.5207C143.359 44.5207 142.395 43.5616 142.395 42.3729C142.395 41.1842 143.358 40.2236 144.548 40.2236C145.733 40.2236 146.696 41.1849 146.696 42.3729Z" fill="#19964F"/>
<path d="M146.696 16.134C146.696 17.3261 145.733 18.2846 144.548 18.2846C143.359 18.2846 142.395 17.3261 142.395 16.134C142.395 14.9487 143.358 13.9889 144.548 13.9889C145.733 13.9889 146.696 14.9487 146.696 16.134Z" fill="#0094D4"/>
<path d="M146.696 3.1818C146.696 4.37118 145.733 5.33241 144.548 5.33241C143.359 5.33241 142.395 4.37118 142.395 3.1818C142.395 1.99859 143.358 1.03394 144.548 1.03394C145.733 1.03394 146.696 1.99859 146.696 3.1818Z" fill="#DB2631"/>
<path d="M21.3313 1.74438H26.1978L33.9541 20.092H28.5402L27.2131 16.8384H20.1865L18.8854 20.092H13.5764L21.3313 1.74438ZM25.7559 12.9092L23.7258 7.73032L21.6705 12.9092H25.7559Z" fill="#034EA2"/>
<path d="M40.4847 1.09338H35.5402V20.0919H40.4847V1.09338Z" fill="#034EA2"/>
<path d="M42.6696 13.1175V13.0654C42.6696 9.0835 45.7664 5.72571 50.2169 5.72571C53.1054 5.72571 55.0313 6.97537 56.2282 8.87522L52.8711 11.3732C52.1942 10.4359 51.4399 9.88921 50.2423 9.88921C48.6549 9.88921 47.484 11.2951 47.484 13.0127V13.0654C47.484 14.8865 48.6288 16.2663 50.295 16.2663C51.4659 16.2663 52.2209 15.7196 53.0013 14.8091L56.307 17.2036C55.006 19.1295 53.1322 20.4305 50.0347 20.4305C45.7931 20.4305 42.6696 17.0988 42.6696 13.1175Z" fill="#034EA2"/>
<path d="M57.347 16.0578V16.0058C57.347 13.0913 59.5593 11.5812 62.8643 11.5812C64.1653 11.5812 65.441 11.8409 66.2474 12.1273V11.893C66.2474 10.4357 65.3362 9.6026 63.4364 9.6026C61.9524 9.6026 60.8082 9.88899 59.5586 10.3836L58.5439 6.89636C60.1306 6.24549 61.8229 5.80359 64.2434 5.80359C66.7681 5.80359 68.4857 6.40239 69.6045 7.5212C70.672 8.5619 71.1146 10.0198 71.1146 11.9978V20.0919H66.2214V18.6346C65.2588 19.7013 63.9317 20.4043 62.0833 20.4043C59.403 20.4043 57.347 18.8689 57.347 16.0578ZM66.2995 14.9904V14.3402C65.8048 14.132 65.1019 13.9764 64.3729 13.9764C62.9417 13.9764 62.1086 14.6787 62.1086 15.7194V15.7715C62.1086 16.7347 62.8369 17.3068 63.8522 17.3068C65.2842 17.3075 66.2995 16.3963 66.2995 14.9904Z" fill="#034EA2"/>
<path d="M78.6859 1.09338H73.7413V20.0919H78.6859V1.09338Z" fill="#034EA2"/>
<path d="M80.9235 13.1173V13.0652C80.9235 8.4845 83.7866 5.69947 87.1177 5.69947C89.2511 5.69947 90.5008 6.66207 91.4374 7.7295V1.09338H96.3819V20.0912H91.4374V18.2174C90.4748 19.3889 89.2512 20.4036 87.143 20.4036C83.8119 20.4043 80.9235 17.6193 80.9235 13.1173ZM91.5155 13.0652V13.0125C91.5155 11.1647 90.2405 9.83763 88.653 9.83763C87.0649 9.83763 85.7639 11.1387 85.7639 13.0125V13.0652C85.7639 14.9384 87.0649 16.2661 88.653 16.2661C90.2398 16.2661 91.5155 14.9391 91.5155 13.0652Z" fill="#034EA2"/>
<path d="M99.1396 6.01265H104.084V20.0926H99.1396V6.01265ZM102.314 0L106.921 1.48329L103.095 4.81437H99.6082L102.314 0Z" fill="#034EA2"/>
<path d="M106.139 16.0578V16.0058C106.139 13.0913 108.352 11.5812 111.657 11.5812C112.958 11.5812 114.233 11.8409 115.04 12.1273V11.893C115.04 10.4357 114.129 9.6026 112.229 9.6026C110.745 9.6026 109.6 9.88899 108.351 10.3836L107.336 6.89636C108.924 6.24549 110.615 5.80359 113.036 5.80359C115.561 5.80359 117.278 6.40239 118.397 7.5212C119.464 8.5619 119.907 10.0198 119.907 11.9978V20.0919H115.014V18.6346C114.051 19.7013 112.724 20.4043 110.876 20.4043C108.195 20.4043 106.139 18.8689 106.139 16.0578ZM115.092 14.9904V14.3402C114.597 14.132 113.894 13.9764 113.165 13.9764C111.734 13.9764 110.902 14.6787 110.902 15.7194V15.7715C110.902 16.7347 111.63 17.3068 112.645 17.3068C114.077 17.3075 115.092 16.3963 115.092 14.9904Z" fill="#034EA2"/>
<path d="M0 37.4277V37.3695C0 32.192 3.23584 29.0452 7.0006 29.0452C9.41292 29.0452 10.8243 30.1332 11.8828 31.3397V23.839H17.4714V45.3108H11.8828V43.1931C10.7948 44.5167 9.41224 45.6629 7.02938 45.6629C3.26462 45.6636 0 42.5169 0 37.4277ZM11.9705 37.3695V37.3106C11.9705 35.2223 10.529 33.7219 8.73533 33.7219C6.94099 33.7219 5.47003 35.1922 5.47003 37.3106V37.3695C5.47003 39.4865 6.94031 40.987 8.73533 40.987C10.5297 40.9877 11.9705 39.4865 11.9705 37.3695Z" fill="#034EA2"/>
<path d="M19.8268 37.4278V37.3695C19.8268 32.7217 23.1504 29.0453 27.8565 29.0453C33.3567 29.0453 35.8868 33.0752 35.8868 37.7518C35.8868 38.1047 35.8868 38.5158 35.8574 38.8987H25.2085C25.6497 40.6342 26.9151 41.5166 28.6499 41.5166C29.9735 41.5166 31.0327 41.0172 32.179 39.899L35.2675 42.458C33.7376 44.3989 31.5322 45.6931 28.3553 45.6931C23.3559 45.6931 19.8268 42.3696 19.8268 37.4278ZM30.6504 36.0459C30.4442 34.2817 29.4145 33.1636 27.8853 33.1636C26.415 33.1636 25.4147 34.3112 25.1208 36.0459H30.6504Z" fill="#034EA2"/>
<path d="M46.7426 24.7214H57.3017C59.8901 24.7214 61.714 25.3682 62.9198 26.5747C63.744 27.3982 64.2434 28.4862 64.2434 29.8989V29.9572C64.2434 32.34 62.8903 33.7514 61.0665 34.5461C63.5665 35.3696 65.1553 36.7817 65.1553 39.5763V39.6345C65.1553 43.1643 62.273 45.3115 57.3607 45.3115H46.7426V24.7214ZM55.8897 32.9285C57.6251 32.9285 58.5959 32.3393 58.5959 31.1335V31.0746C58.5959 29.9565 57.7135 29.3097 56.0082 29.3097H52.3017V32.9285H55.8897ZM56.7132 40.7218C58.4486 40.7218 59.4489 40.0463 59.4489 38.8398V38.7809C59.4489 37.6634 58.5665 36.9276 56.6543 36.9276H52.301V40.7218H56.7132Z" fill="#034EA2"/>
<path d="M66.8044 37.4278V37.3695C66.8044 32.7217 70.1279 29.0453 74.834 29.0453C80.3342 29.0453 82.8637 33.0752 82.8637 37.7518C82.8637 38.1047 82.8637 38.5158 82.8342 38.8987H72.1867C72.6279 40.6342 73.8927 41.5166 75.6281 41.5166C76.9511 41.5166 78.0103 41.0172 79.1572 39.899L82.2457 42.458C80.7158 44.3989 78.5104 45.6931 75.3335 45.6931C70.3335 45.6931 66.8044 42.3696 66.8044 37.4278ZM77.6287 36.0459C77.4224 34.2817 76.3927 33.1636 74.8635 33.1636C73.3932 33.1636 72.3929 34.3112 72.0983 36.0459H77.6287Z" fill="#034EA2"/>
<path d="M90.9551 23.839H85.3658V45.3108H90.9551V23.839Z" fill="#034EA2"/>
<path d="M99.7795 23.839H94.1909V45.3108H99.7795V23.839Z" fill="#034EA2"/>
<path d="M102.251 37.4278V37.3695C102.251 32.8402 105.957 29.0453 111.074 29.0453C116.163 29.0453 119.839 32.7806 119.839 37.3106V37.3695C119.839 41.8989 116.133 45.6924 111.015 45.6924C105.928 45.6931 102.251 41.9585 102.251 37.4278ZM114.399 37.4278V37.3695C114.399 35.4279 112.987 33.7809 111.016 33.7809C108.986 33.7809 107.692 35.3984 107.692 37.3106V37.3695C107.692 39.3098 109.104 40.9575 111.075 40.9575C113.104 40.9582 114.399 39.3393 114.399 37.4278Z" fill="#034EA2"/>
</svg>
